<?xml version="1.0" encoding="utf-8"?><!-- Uploaded to: SVG Repo, www.svgrepo.com, Generator: SVG Repo Mixer Tools -->
<svg fill="#000000" width="800px" height="800px" viewBox="0 -8 72 72" id="Layer_1" data-name="Layer 1" xmlns="http://www.w3.org/2000/svg"><title>lock</title><path d="M54.39,22.46H51.62V15.62a15.62,15.62,0,0,0-31.24,0v6.84H17.61A1.61,1.61,0,0,0,16,24.07V54.38A1.61,1.61,0,0,0,17.61,56H54.39A1.61,1.61,0,0,0,56,54.38V24.07A1.61,1.61,0,0,0,54.39,22.46ZM38.52,40.9v6.46a1,1,0,0,1-1,1h-3a1,1,0,0,1-1-1V40.9a4.36,4.36,0,1,1,5,0Zm5.64-18.44H27.84V15.62a8.16,8.16,0,1,1,16.32,0v6.84Z"/></svg>