<?xml version="1.0" encoding="UTF-8"?>
<svg id="Layer_1" xmlns="http://www.w3.org/2000/svg" version="1.1" viewBox="0 0 800 800">
  <!-- Generator: Adobe Illustrator 29.7.1, SVG Export Plug-In . SVG Version: 2.1.1 Build 8)  -->
  <defs>
    <style>
      .st0 {
        fill: #231f20;
      }
    </style>
  </defs>
  <path class="st0" d="M334.7,510.4c44.1,0,85.9-15.3,119.3-43.3l17.2,17.2-5.7,5.7c-3,3-4.7,7.1-4.7,11.3s1.7,8.3,4.7,11.3l132.1,132.1c3.1,3.1,7.2,4.7,11.3,4.7s8.2-1.6,11.3-4.7l35.3-35.3c3-3,4.7-7.1,4.7-11.3s-1.7-8.3-4.7-11.3l-132.1-132.1c-6.3-6.3-16.4-6.3-22.6,0l-7,7-17.2-17.2c28.7-33.7,44.4-75.9,44.4-120.6s-19.4-96.6-54.6-131.8-82-54.6-131.8-54.6-96.6,19.4-131.8,54.6c-35.2,35.2-54.6,82-54.6,131.8s19.4,96.6,54.6,131.8c35.2,35.2,82,54.6,131.8,54.6h.1ZM225.6,214.8c29.2-29.2,67.9-45.2,109.2-45.2s80,16.1,109.2,45.2c29.2,29.2,45.2,68,45.2,109.2s-16.1,80-45.2,109.2-68,45.2-109.2,45.2-80-16.1-109.2-45.2-45.2-68-45.2-109.2,16-80,45.2-109.2h0Z"/>
  <g>
    <path class="st0" d="M372.9,244.8c-19.2,0-34.8,15.6-34.8,34.8s15.6,34.8,34.8,34.8,34.8-15.6,34.8-34.8-15.6-34.8-34.8-34.8Z"/>
    <path class="st0" d="M334.8,186c-76.3,0-138.3,62-138.3,138.3s62,138.3,138.3,138.3h0c76.3,0,138.3-62,138.3-138.3s-62-138.3-138.3-138.3ZM372.9,334.2c-13.5-.4-22.1-3.5-30.9-9.6l-39.5,39.4,12.8,12.8c3.9,3.9,3.9,10.2,0,14-3.9,3.9-10.2,3.9-14,0l-12.8-12.8-15.8,15.7,12.8,12.8c3.9,3.9,3.9,10.2,0,14s-4.5,2.9-7,2.9h0c-2.5,0-5.1-.9-7-2.9l-19.9-19.9c-1.9-1.9-2.9-4.4-2.9-7s1-5.2,2.9-7l29.4-29.4c.1-.1.3-.3.4-.4.1-.1.3-.3.4-.4l46.1-46c-6.1-8.8-9.7-19.5-9.7-31,0-30.1,24.5-54.6,54.6-54.6s54.6,24.5,54.6,54.6-24.5,55.5-54.6,54.6Z"/>
  </g>
</svg>