<?xml version="1.0" encoding="UTF-8"?>
<svg id="Layer_1" xmlns="http://www.w3.org/2000/svg" version="1.1" viewBox="0 0 800 800">
  <!-- Generator: Adobe Illustrator 29.6.1, SVG Export Plug-In . SVG Version: 2.1.1 Build 9)  -->
  <defs>
    <style>
      .st0 {
        fill: #fff;
      }

      .st1 {
        fill: #e9573f;
      }
    </style>
  </defs>
  <g>
    <path class="st1" d="M396.3,722.7c-3.3,0-6.5-.4-9.8-1-7.3-1.5-13.3-4.7-23.1-10.3l-235.9-130.1c-10.4-5.7-16.6-9.2-22-14.9-4.7-5-8.2-11-10.4-17.6-2.5-7.4-2.5-14.1-2.5-26.3v-257c0-12.3,0-18.9,2.5-26.3,2.2-6.6,5.6-12.4,10.4-17.6,5.3-5.7,11.2-9,22-14.9l117-64.5c.2,0,.4-.2.5-.3l118.4-65.3c9.9-5.4,15.8-8.7,23.1-10.3,6.5-1.3,13.1-1.3,19.6,0,7.3,1.5,13.3,4.7,23.1,10.2l235.9,130.1c10.4,5.7,16.6,9.2,22,14.9,4.7,5.1,8.2,11,10.4,17.6,2.5,7.4,2.5,14.1,2.5,26.3v290.3c0,6.1-3.3,11.7-8.8,14.6l-223,119.5-38.9,21.5c-9.9,5.4-15.8,8.7-23.1,10.3-3.3.7-6.5.9-9.8.9v.2ZM683.2,556h0Z"/>
    <path class="st0" d="M400,746c-3.4,0-6.8-.4-10.2-1.1-7.6-1.6-13.9-5-24.2-10.8l-246.7-137c-10.9-6-17.4-9.7-23-15.7-4.9-5.3-8.6-11.6-10.9-18.5-2.6-7.8-2.6-14.9-2.6-27.7v-270.6c0-12.9,0-19.9,2.6-27.7,2.3-6.9,5.9-13.1,10.9-18.5,5.5-6,11.7-9.5,23-15.7l122.3-67.9c.2-.1.4-.2.5-.3l123.8-68.8c10.3-5.7,16.5-9.2,24.2-10.8,6.8-1.4,13.7-1.4,20.5,0,7.6,1.6,13.9,5,24.2,10.7l246.7,137c10.9,6,17.4,9.7,23,15.7,4.9,5.4,8.6,11.6,10.9,18.5,2.6,7.8,2.6,14.8,2.6,27.7v305.7c0,6.4-3.5,12.3-9.2,15.4l-233.2,125.8-40.7,22.6c-10.3,5.7-16.5,9.2-24.2,10.8-3.4.7-6.8,1-10.2,1v.2ZM117.5,263.1v272.2c0,8.9,0,14.3.8,16.7.7,2.2,1.9,4.1,3.4,5.8,1.7,1.9,6.4,4.5,14.2,8.8l246.6,137v-293.3L117.5,263.1ZM417.5,410.3v293.3l40.7-22.6s.1,0,.2,0l224.1-120.9v-296.9l-123.7,68.7c-.2,0-.3.2-.5.3l-140.8,78.2ZM700,570.4h0ZM136,233.3l264,146.6,114-63.3L250,170l-114,63.3ZM286,150l264,146.6,114-63.3-246.6-137c-7.4-4.1-11.8-6.6-14.2-7.1-2.1-.4-4.3-.4-6.4,0-2.4.5-6.8,3-14.2,7.1l-96.6,53.6h0Z"/>
  </g>
  <path d="M-522.4,746c-3.4,0-6.8-.4-10.2-1.1-7.6-1.6-13.9-5-24.2-10.8l-246.7-137c-10.9-6-17.4-9.7-23-15.7-4.9-5.3-8.6-11.6-10.9-18.5-2.6-7.8-2.6-14.9-2.6-27.7v-270.6c0-12.9,0-19.9,2.6-27.7,2.3-6.9,5.9-13.1,10.9-18.5,5.5-6,11.7-9.5,23-15.7l122.3-67.9c.2-.1.4-.2.5-.3l123.8-68.8c10.3-5.7,16.5-9.2,24.2-10.8,6.8-1.4,13.7-1.4,20.5,0,7.6,1.6,13.9,5,24.2,10.7l246.7,137c10.9,6,17.4,9.7,23,15.7,4.9,5.4,8.6,11.6,10.9,18.5,2.6,7.8,2.6,14.8,2.6,27.7v305.7c0,6.4-3.5,12.3-9.2,15.4l-233.2,125.8-40.7,22.6c-10.3,5.7-16.5,9.2-24.2,10.8-3.4.7-6.8,1-10.2,1v.2ZM-804.9,263.1v272.2c0,8.9,0,14.3.8,16.7.7,2.2,1.9,4.1,3.4,5.8,1.7,1.9,6.4,4.5,14.2,8.8l246.6,137v-293.3l-265-147.2ZM-504.9,410.3v293.3l40.7-22.6s.1,0,.2,0l224.1-120.9v-296.9l-123.7,68.7c-.2,0-.3.2-.5.3l-140.8,78.2ZM-222.4,570.4h0ZM-786.4,233.3l264,146.6,114-63.3-264-146.6-114,63.3ZM-636.4,150l264,146.6,114-63.3-246.6-137c-7.4-4.1-11.8-6.6-14.2-7.1-2.1-.4-4.3-.4-6.4,0-2.4.5-6.8,3-14.2,7.1l-96.6,53.6h0Z"/>
</svg>