<?xml version="1.0" encoding="UTF-8"?>
<svg id="Layer_1" xmlns="http://www.w3.org/2000/svg" version="1.1" viewBox="0 0 415.1 304.9">
  <!-- Generator: Adobe Illustrator 29.7.1, SVG Export Plug-In . SVG Version: 2.1.1 Build 8)  -->
  <defs>
    <style>
      .st0 {
        fill: #006eae;
      }

      .st1 {
        fill: #010101;
      }

      .st2 {
        fill: #449c68;
      }

      .st3 {
        fill: #fff;
      }

      .st4 {
        fill: #e95740;
      }
    </style>
  </defs>
  <rect x="933.5" width="415.1" height="304.9"/>
  <path class="st4" d="M748,68.4h0s-.2,0-.2,0h-212.6c-1.2,0-2.5,0-3.7.2-19.7,2-35.1,18.6-35.1,38.8v104c0,21.5,17.5,39,39,39h208.4c16.2,0,30.1-9.9,36-23.9,1.9-4.3,3-9.1,3-14.2v-108.9c0-19.2-15.6-34.9-34.8-35Z"/>
  <g>
    <g>
      <path class="st1" d="M-771.2,188.4c5.2-9,9.4-19.8,12.1-31.9,3.9,0,7.8.2,11.8,1s3,1.5,2.8,3c-1,5.1-4.5,8.5-5.5,13.6s1.9,7.8,6.2,8.6c11.9,2.3,30.2-15.2,35-14.3s-4.6,18.1,10.1,21,5.6.4,8.3-.6c1.6-.7,2.9-1.9,3.2-3.7s-.6-4.3-3-4.8-4.1,1-6.1.6c-6.3-1.2,3.5-19.5-8.1-21.8-10.2-2-30,14.7-34,13.9-.5-.1-.9-.5-.7-1.2.4-2.1,4-6.3,4.9-11.1,1.1-5.9-3-10.6-10.6-12s-8.3-1.2-12.4-1.2c4.8-31.1-5.1-58.3-27.5-62.7-15.1-2.9-29.2,7.6-32.4,24-3.7,19.1,5.5,37.9,18.8,51.7-8.2,5.4-15,12-19.7,18.7,0,0-2.6,3.7-4,6.7s-2.3,5.6-2.8,8.2c-1.8,9.4,2.1,17.2,13.2,19.4,13.5,2.6,27-4.9,36.2-18.5,4.4-6.6,4.3-6.6,4.3-6.6ZM-780.7,186.6c-2.7,4.6-4.7,6.6-4.7,6.6-7.2,8.7-15.4,13.3-23.5,11.7s-7.5-5.3-6.4-10.6.5-3,2.4-6.5,4.4-6.6,4.4-6.6c4.2-5.1,9.9-10.3,16.8-14.5,1.6,1.3,3.2,2.6,4.9,3.8.7.5,1.4.8,2.1,1,2.4.5,4.5-1.1,4.9-3.1s-.1-3-1.7-4.2c-.7-.6-1.5-1.1-2.3-1.8,4.8-2.2,10-3.9,15.4-4.9-2.9,11.2-9.5,24.5-12.1,29.1ZM-790.8,156.1c-10.5-10.8-21-27.3-17.4-45.6,2.2-11.4,11.7-18.8,21.7-16.8,17.6,3.4,24.7,27.5,19.9,54.5-8.6,1.2-16.9,4.1-24.2,7.9Z"/>
      <path class="st1" d="M-532.1,60.6c0-1.5-.6-2.8-1.6-3.9l-9.9-9.9c-1-1-2.4-1.6-3.9-1.6s-2.8.6-3.9,1.6l-12.3,12.3c-2.1-1.6-5.2-1.4-7.1.5l-49,49-11,11-66.5,66.5c-5.2,5.2-6.1,13.1-2.8,19.3l-4.4,4.4s-5.3,4.7-1,8.8,6.4,1.5,7.4.4l5.8-5.8c2.4,1.3,5,2,7.8,2,4.3,0,8.4-1.7,11.5-4.8l90.8-90.8,11-11,9.7-9.7c1.3,3.1,1,6.8-1,9.7l-10.7,11-18.7,18.7c-2.1,2.1-2.1,5.6,0,7.7,1.1,1.1,2.5,1.6,3.9,1.6s2.8-.5,3.9-1.6l26.4-26.4s5-5.3,7.2-11c1.3-3.4.7-12.5-2.9-17.7l7-7c1-1,1.6-2.4,1.6-3.9s-.4-2.3-1.1-3.3l12.3-12.3c1-1,1.6-2.4,1.6-3.9ZM-680.6,202.6c-1,1-2.3,1.6-3.8,1.6s-2.8-.6-3.8-1.6l-1.2-1.2c-2.1-2.1-2.1-5.5,0-7.5l21.2-21.2,8.8,8.8-21.2,21.2ZM-651.7,173.7l-8.8-8.8,93.6-93.6,8.8,8.8-93.6,93.6ZM-553.7,68.9l-2.1-2.1,8.4-8.4,2.1,2.1-8.4,8.4Z"/>
    </g>
    <path d="M-612.9,250.5h-208.4c-21.5,0-39-17.5-39-39v-104c0-21.5,17.5-39,39-39h212.6v8h-212.6c-17.1,0-31,13.9-31,31v104c0,17.1,13.9,31,31,31h208.4c17.1,0,31-13.9,31-31v-54.7h8v54.7c0,21.5-17.5,39-39,39Z"/>
  </g>
  <g>
    <path class="st3" d="M585.6,188.4c5.2-9,9.4-19.8,12.1-31.9,3.9,0,7.8.2,11.8,1,2.1.4,3,1.5,2.8,3-1,5.1-4.5,8.5-5.5,13.6-.9,4.5,1.9,7.8,6.2,8.6,11.9,2.3,30.2-15.2,35-14.3s-4.6,18.1,10.1,21c2.4.5,5.6.4,8.3-.6,1.6-.7,2.9-1.9,3.2-3.7s-.6-4.3-3-4.8-4.1,1-6.1.6c-6.3-1.2,3.5-19.5-8.1-21.8-10.2-2-30,14.7-34,13.9s-.9-.5-.7-1.2c.4-2.1,4-6.3,4.9-11.1,1.1-5.9-3-10.6-10.6-12s-8.3-1.2-12.4-1.2c4.8-31.1-5.1-58.3-27.5-62.7-15.1-2.9-29.2,7.6-32.4,24-3.7,19.1,5.5,37.9,18.8,51.7-8.2,5.4-15,12-19.7,18.7,0,0-2.6,3.7-4,6.7s-2.3,5.6-2.8,8.2c-1.8,9.4,2.1,17.2,13.2,19.4,13.5,2.6,27-4.9,36.2-18.5,4.4-6.6,4.3-6.6,4.3-6.6ZM576,186.6c-2.7,4.6-4.7,6.6-4.7,6.6-7.2,8.7-15.4,13.3-23.5,11.7-5.6-1.1-7.5-5.3-6.4-10.6s.5-3,2.4-6.5c1.9-3.6,4.4-6.6,4.4-6.6,4.2-5.1,9.9-10.3,16.8-14.5,1.6,1.3,3.2,2.6,4.9,3.8.7.5,1.4.8,2.1,1,2.4.5,4.5-1.1,4.9-3.1s-.1-3-1.7-4.2c-.7-.6-1.5-1.1-2.3-1.8,4.8-2.2,10-3.9,15.4-4.9-2.9,11.2-9.5,24.5-12.1,29.1ZM565.9,156.1c-10.5-10.8-21-27.3-17.4-45.6,2.2-11.4,11.7-18.8,21.7-16.8,17.6,3.4,24.7,27.5,19.9,54.5-8.6,1.2-16.9,4.1-24.2,7.9Z"/>
    <path class="st3" d="M824.7,60.6c0-1.5-.6-2.8-1.6-3.9l-9.9-9.9c-1-1-2.4-1.6-3.9-1.6s-2.8.6-3.9,1.6l-12.3,12.3c-2.1-1.6-5.2-1.4-7.1.5l-49,49-11,11-66.5,66.5c-5.2,5.2-6.1,13.1-2.8,19.3l-4.4,4.4s-5.3,4.7-1,8.8,6.4,1.5,7.4.4l5.8-5.8c2.4,1.3,5,2,7.8,2,4.3,0,8.4-1.7,11.5-4.8l90.8-90.8,11-11,9.7-9.7c1.3,3.1,1,6.8-1,9.7l-10.7,11-18.7,18.7c-2.1,2.1-2.1,5.6,0,7.7,1.1,1.1,2.5,1.6,3.9,1.6s2.8-.5,3.9-1.6l26.4-26.4s5-5.3,7.2-11c1.3-3.4.7-12.5-2.9-17.7l7-7c1-1,1.6-2.4,1.6-3.9s-.4-2.3-1.1-3.3l12.3-12.3c1-1,1.6-2.4,1.6-3.9ZM676.1,202.6c-1,1-2.3,1.6-3.8,1.6s-2.8-.6-3.8-1.6l-1.2-1.2c-2.1-2.1-2.1-5.5,0-7.5l21.2-21.2,8.8,8.8-21.2,21.2ZM705,173.7l-8.8-8.8,93.6-93.6,8.8,8.8-93.6,93.6ZM803.1,68.9l-2.1-2.1,8.4-8.4,2.1,2.1-8.4,8.4Z"/>
    <path class="st4" d="M824.7,60.6c0-1.5-.6-2.8-1.6-3.9l-9.9-9.9c-1-1-2.4-1.6-3.9-1.6s-2.8.6-3.9,1.6l-12.3,12.3c-2.1-1.6-5.2-1.4-7.1.5l-16.4,16.4c3.1,2.4,5.2,4.6,7.4,8.1l12.9-12.9,8.8,8.8-16.5,16.5c.2,1.8.7,14.8.7,14.8l2.8-2.8,9.7-9.7c1.3,3.1,1,6.8-1,9.7l-11.5,11.8s.1,12.6.1,15.4l16.2-16.2s5-5.3,7.2-11c1.3-3.4.7-12.5-2.9-17.7l7-7c1-1,1.6-2.4,1.6-3.9s-.4-2.3-1.1-3.3l12.3-12.3c1-1,1.6-2.4,1.6-3.9ZM803.1,68.9l-2.1-2.1,8.4-8.4,2.1,2.1-8.4,8.4Z"/>
  </g>
  <path class="st2" d="M293.6,68.4h0s-.2,0-.2,0H80.8c-1.2,0-2.5,0-3.7.2-19.7,2-35.1,18.6-35.1,38.8v104c0,21.5,17.5,39,39,39h208.4c16.2,0,30.1-9.9,36-23.9,1.9-4.3,3-9.1,3-14.2v-108.9c0-19.2-15.6-34.9-34.8-35Z"/>
  <g>
    <path class="st3" d="M131.1,188.4c5.2-9,9.4-19.8,12.1-31.9,3.9,0,7.8.2,11.8,1s3,1.5,2.8,3c-1,5.1-4.5,8.5-5.5,13.6-.9,4.5,1.9,7.8,6.2,8.6,11.9,2.3,30.2-15.2,35-14.3s-4.6,18.1,10.1,21c2.4.5,5.6.4,8.3-.6,1.6-.7,2.9-1.9,3.2-3.7.4-2.2-.6-4.3-3-4.8s-4.1,1-6.1.6c-6.3-1.2,3.5-19.5-8.1-21.8-10.2-2-30,14.7-34,13.9-.5-.1-.9-.5-.7-1.2.4-2.1,4-6.3,4.9-11.1,1.1-5.9-3-10.6-10.6-12-4.2-.8-8.3-1.2-12.4-1.2,4.8-31.1-5.1-58.3-27.5-62.7-15.1-2.9-29.2,7.6-32.4,24-3.7,19.1,5.5,37.9,18.8,51.7-8.2,5.4-15,12-19.7,18.7,0,0-2.6,3.7-4,6.7s-2.3,5.6-2.8,8.2c-1.8,9.4,2.1,17.2,13.2,19.4s27-4.9,36.2-18.5c4.4-6.6,4.3-6.6,4.3-6.6ZM121.6,186.6c-2.7,4.6-4.7,6.6-4.7,6.6-7.2,8.7-15.4,13.3-23.5,11.7s-7.5-5.3-6.4-10.6.5-3,2.4-6.5c1.9-3.6,4.4-6.6,4.4-6.6,4.2-5.1,9.9-10.3,16.8-14.5,1.6,1.3,3.2,2.6,4.9,3.8.7.5,1.4.8,2.1,1,2.4.5,4.5-1.1,4.9-3.1s-.1-3-1.7-4.2c-.7-.6-1.5-1.1-2.3-1.8,4.8-2.2,10-3.9,15.4-4.9-2.9,11.2-9.5,24.5-12.1,29.1ZM111.5,156.1c-10.5-10.8-21-27.3-17.4-45.6,2.2-11.4,11.7-18.8,21.7-16.8,17.6,3.4,24.7,27.5,19.9,54.5-8.6,1.2-16.9,4.1-24.2,7.9Z"/>
    <path class="st3" d="M370.2,60.6c0-1.5-.6-2.8-1.6-3.9l-9.9-9.9c-1-1-2.4-1.6-3.9-1.6s-2.8.6-3.9,1.6l-12.3,12.3c-2.1-1.6-5.2-1.4-7.1.5l-49,49-11,11-66.5,66.5c-5.2,5.2-6.1,13.1-2.8,19.3l-4.4,4.4s-5.3,4.7-1,8.8c2.8,2.6,6.4,1.5,7.4.4l5.8-5.8c2.4,1.3,5,2,7.8,2,4.3,0,8.4-1.7,11.5-4.8l90.8-90.8,11-11,9.7-9.7c1.3,3.1,1,6.8-1,9.7l-10.7,11-18.7,18.7c-2.1,2.1-2.1,5.6,0,7.7,1.1,1.1,2.5,1.6,3.9,1.6s2.8-.5,3.9-1.6l26.4-26.4s5-5.3,7.2-11c1.3-3.4.7-12.5-2.9-17.7l7-7c1-1,1.6-2.4,1.6-3.9s-.4-2.3-1.1-3.3l12.3-12.3c1-1,1.6-2.4,1.6-3.9ZM221.7,202.6c-1,1-2.3,1.6-3.8,1.6s-2.8-.6-3.8-1.6l-1.2-1.2c-2.1-2.1-2.1-5.5,0-7.5l21.2-21.2,8.8,8.8-21.2,21.2ZM250.6,173.7l-8.8-8.8,93.6-93.6,8.8,8.8-93.6,93.6ZM348.7,68.9l-2.1-2.1,8.4-8.4,2.1,2.1-8.4,8.4Z"/>
    <path class="st2" d="M370.2,60.6c0-1.5-.6-2.8-1.6-3.9l-9.9-9.9c-1-1-2.4-1.6-3.9-1.6s-2.8.6-3.9,1.6l-12.3,12.3c-2.1-1.6-5.2-1.4-7.1.5l-16.4,16.4c3.1,2.4,5.2,4.6,7.4,8.1l12.9-12.9,8.8,8.8-16.5,16.5c.2,1.8.7,14.8.7,14.8l2.8-2.8,9.7-9.7c1.3,3.1,1,6.8-1,9.7l-11.5,11.8s.1,12.6.1,15.4l16.2-16.2s5-5.3,7.2-11c1.3-3.4.7-12.5-2.9-17.7l7-7c1-1,1.6-2.4,1.6-3.9s-.4-2.3-1.1-3.3l12.3-12.3c1-1,1.6-2.4,1.6-3.9ZM348.7,68.9l-2.1-2.1,8.4-8.4,2.1,2.1-8.4,8.4Z"/>
  </g>
  <path class="st0" d="M-165.4,68.4h0s-.2,0-.2,0h-212.6c-1.2,0-2.5,0-3.7.2-19.7,2-35.1,18.6-35.1,38.8v104c0,21.5,17.5,39,39,39h208.4c16.2,0,30.1-9.9,36-23.9,1.9-4.3,3-9.1,3-14.2v-108.9c0-19.2-15.6-34.9-34.8-35Z"/>
  <g>
    <path class="st3" d="M-327.9,188.4c5.2-9,9.4-19.8,12.1-31.9,3.9,0,7.8.2,11.8,1s3,1.5,2.8,3c-1,5.1-4.5,8.5-5.5,13.6s1.9,7.8,6.2,8.6c11.9,2.3,30.2-15.2,35-14.3s-4.6,18.1,10.1,21,5.6.4,8.3-.6c1.6-.7,2.9-1.9,3.2-3.7s-.6-4.3-3-4.8-4.1,1-6.1.6c-6.3-1.2,3.5-19.5-8.1-21.8-10.2-2-30,14.7-34,13.9-.5-.1-.9-.5-.7-1.2.4-2.1,4-6.3,4.9-11.1s-3-10.6-10.6-12-8.3-1.2-12.4-1.2c4.8-31.1-5.1-58.3-27.5-62.7-15.1-2.9-29.2,7.6-32.4,24-3.7,19.1,5.5,37.9,18.8,51.7-8.2,5.4-15,12-19.7,18.7,0,0-2.6,3.7-4,6.7s-2.3,5.6-2.8,8.2c-1.8,9.4,2.1,17.2,13.2,19.4,13.5,2.6,27-4.9,36.2-18.5,4.4-6.6,4.3-6.6,4.3-6.6ZM-337.4,186.6c-2.7,4.6-4.7,6.6-4.7,6.6-7.2,8.7-15.4,13.3-23.5,11.7s-7.5-5.3-6.4-10.6c.4-2.1.5-3,2.4-6.5s4.4-6.6,4.4-6.6c4.2-5.1,9.9-10.3,16.8-14.5,1.6,1.3,3.2,2.6,4.9,3.8.7.5,1.4.8,2.1,1,2.4.5,4.5-1.1,4.9-3.1s-.1-3-1.7-4.2c-.7-.6-1.5-1.1-2.3-1.8,4.8-2.2,10-3.9,15.4-4.9-2.9,11.2-9.5,24.5-12.1,29.1ZM-347.5,156.1c-10.5-10.8-21-27.3-17.4-45.6s11.7-18.8,21.7-16.8c17.6,3.4,24.7,27.5,19.9,54.5-8.6,1.2-16.9,4.1-24.2,7.9Z"/>
    <path class="st3" d="M-88.8,60.6c0-1.5-.6-2.8-1.6-3.9l-9.9-9.9c-1-1-2.4-1.6-3.9-1.6s-2.8.6-3.9,1.6l-12.3,12.3c-2.1-1.6-5.2-1.4-7.1.5l-49,49-11,11-66.5,66.5c-5.2,5.2-6.1,13.1-2.8,19.3l-4.4,4.4s-5.3,4.7-1,8.8,6.4,1.5,7.4.4l5.8-5.8c2.4,1.3,5,2,7.8,2,4.3,0,8.4-1.7,11.5-4.8l90.8-90.8,11-11,9.7-9.7c1.3,3.1,1,6.8-1,9.7l-10.7,11-18.7,18.7c-2.1,2.1-2.1,5.6,0,7.7,1.1,1.1,2.5,1.6,3.9,1.6s2.8-.5,3.9-1.6l26.4-26.4s5-5.3,7.2-11c1.3-3.4.7-12.5-2.9-17.7l7-7c1-1,1.6-2.4,1.6-3.9s-.4-2.3-1.1-3.3l12.3-12.3c1-1,1.6-2.4,1.6-3.9ZM-237.4,202.6c-1,1-2.3,1.6-3.8,1.6s-2.8-.6-3.8-1.6l-1.2-1.2c-2.1-2.1-2.1-5.5,0-7.5l21.2-21.2,8.8,8.8-21.2,21.2ZM-208.4,173.7l-8.8-8.8,93.6-93.6,8.8,8.8-93.6,93.6ZM-110.4,68.9l-2.1-2.1,8.4-8.4,2.1,2.1-8.4,8.4Z"/>
    <path class="st0" d="M-88.8,60.6c0-1.5-.6-2.8-1.6-3.9l-9.9-9.9c-1-1-2.4-1.6-3.9-1.6s-2.8.6-3.9,1.6l-12.3,12.3c-2.1-1.6-5.2-1.4-7.1.5l-16.4,16.4c3.1,2.4,5.2,4.6,7.4,8.1l12.9-12.9,8.8,8.8-16.5,16.5c.2,1.8.7,14.8.7,14.8l2.8-2.8,9.7-9.7c1.3,3.1,1,6.8-1,9.7l-11.5,11.8s.1,12.6.1,15.4l16.2-16.2s5-5.3,7.2-11c1.3-3.4.7-12.5-2.9-17.7l7-7c1-1,1.6-2.4,1.6-3.9s-.4-2.3-1.1-3.3l12.3-12.3c1-1,1.6-2.4,1.6-3.9ZM-110.4,68.9l-2.1-2.1,8.4-8.4,2.1,2.1-8.4,8.4Z"/>
  </g>
  <g>
    <path class="st4" d="M748,544.7h0s-.2,0-.2,0h-212.6c-1.2,0-2.5,0-3.7.2-19.7,2-35.1,18.6-35.1,38.8v104c0,21.5,17.5,39,39,39h208.4c16.2,0,30.1-9.9,36-23.9,1.9-4.3,3-9.1,3-14.2v-108.9c0-19.2-15.6-34.9-34.8-35Z"/>
    <g>
      <path class="st3" d="M585.6,664.7c5.2-9,9.4-19.8,12.1-31.9,3.9,0,7.8.2,11.8,1,2.1.4,3,1.5,2.8,3-1,5.1-4.5,8.5-5.5,13.6-.9,4.5,1.9,7.8,6.2,8.6,11.9,2.3,30.2-15.2,35-14.3s-4.6,18.1,10.1,21c2.4.5,5.6.4,8.3-.6,1.6-.7,2.9-1.9,3.2-3.7s-.6-4.3-3-4.8-4.1,1-6.1.6c-6.3-1.2,3.5-19.5-8.1-21.8-10.2-2-30,14.7-34,13.9s-.9-.5-.7-1.2c.4-2.1,4-6.3,4.9-11.1,1.1-5.9-3-10.6-10.6-12-4.2-.8-8.3-1.2-12.4-1.2,4.8-31.1-5.1-58.3-27.5-62.7-15.1-2.9-29.2,7.6-32.4,24-3.7,19.1,5.5,37.9,18.8,51.7-8.2,5.4-15,12-19.7,18.7,0,0-2.6,3.7-4,6.7-1.4,3-2.3,5.6-2.8,8.2-1.8,9.4,2.1,17.2,13.2,19.4s27-4.9,36.2-18.5c4.4-6.6,4.3-6.6,4.3-6.6ZM576,662.8c-2.7,4.6-4.7,6.6-4.7,6.6-7.2,8.7-15.4,13.3-23.5,11.7-5.6-1.1-7.5-5.3-6.4-10.6s.5-3,2.4-6.5c1.9-3.6,4.4-6.6,4.4-6.6,4.2-5.1,9.9-10.3,16.8-14.5,1.6,1.3,3.2,2.6,4.9,3.8.7.5,1.4.8,2.1,1,2.4.5,4.5-1.1,4.9-3.1s-.1-3-1.7-4.2c-.7-.6-1.5-1.1-2.3-1.8,4.8-2.2,10-3.9,15.4-4.9-2.9,11.2-9.5,24.5-12.1,29.1ZM565.9,632.3c-10.5-10.8-21-27.3-17.4-45.6,2.2-11.4,11.7-18.8,21.7-16.8,17.6,3.4,24.7,27.5,19.9,54.5-8.6,1.2-16.9,4.1-24.2,7.9Z"/>
      <path class="st3" d="M824.7,536.8c0-1.5-.6-2.8-1.6-3.9l-9.9-9.9c-1-1-2.4-1.6-3.9-1.6s-2.8.6-3.9,1.6l-12.3,12.3c-2.1-1.6-5.2-1.4-7.1.5l-49,49-11,11-66.5,66.5c-5.2,5.2-6.1,13.1-2.8,19.3l-4.4,4.4s-5.3,4.7-1,8.8c2.8,2.6,6.4,1.5,7.4.4l5.8-5.8c2.4,1.3,5,2,7.8,2,4.3,0,8.4-1.7,11.5-4.8l90.8-90.8,11-11,9.7-9.7c1.3,3.1,1,6.8-1,9.7l-10.7,11-18.7,18.7c-2.1,2.1-2.1,5.6,0,7.7,1.1,1.1,2.5,1.6,3.9,1.6s2.8-.5,3.9-1.6l26.4-26.4s5-5.3,7.2-11c1.3-3.4.7-12.5-2.9-17.7l7-7c1-1,1.6-2.4,1.6-3.9s-.4-2.3-1.1-3.3l12.3-12.3c1-1,1.6-2.4,1.6-3.9ZM676.1,678.8c-1,1-2.3,1.6-3.8,1.6s-2.8-.6-3.8-1.6l-1.2-1.2c-2.1-2.1-2.1-5.5,0-7.5l21.2-21.2,8.8,8.8-21.2,21.2ZM705,649.9l-8.8-8.8,93.6-93.6,8.8,8.8-93.6,93.6ZM803.1,545.2l-2.1-2.1,8.4-8.4,2.1,2.1-8.4,8.4Z"/>
      <path class="st4" d="M824.7,536.8c0-1.5-.6-2.8-1.6-3.9l-9.9-9.9c-1-1-2.4-1.6-3.9-1.6s-2.8.6-3.9,1.6l-12.3,12.3c-2.1-1.6-5.2-1.4-7.1.5l-16.4,16.4c3.1,2.4,5.2,4.6,7.4,8.1l12.9-12.9,8.8,8.8-16.5,16.5c.2,1.8.7,14.8.7,14.8l2.8-2.8,9.7-9.7c1.3,3.1,1,6.8-1,9.7l-11.5,11.8s.1,12.6.1,15.4l16.2-16.2s5-5.3,7.2-11c1.3-3.4.7-12.5-2.9-17.7l7-7c1-1,1.6-2.4,1.6-3.9s-.4-2.3-1.1-3.3l12.3-12.3c1-1,1.6-2.4,1.6-3.9ZM803.1,545.2l-2.1-2.1,8.4-8.4,2.1,2.1-8.4,8.4Z"/>
    </g>
  </g>
  <g>
    <path class="st4" d="M282.8,1434.6h0s-.2,0-.2,0H70c-1.2,0-2.5,0-3.7.2-19.7,2-35.1,18.6-35.1,38.8v104c0,21.5,17.5,39,39,39h208.4c16.2,0,30.1-9.9,36-23.9,1.9-4.3,3-9.1,3-14.2v-108.9c0-19.2-15.6-34.9-34.8-35Z"/>
    <g>
      <path class="st3" d="M120.3,1554.5c5.2-9,9.4-19.8,12.1-31.9,3.9,0,7.8.2,11.8,1s3,1.5,2.8,3c-1,5.1-4.5,8.5-5.5,13.6-.9,4.5,1.9,7.8,6.2,8.6,11.9,2.3,30.2-15.2,35-14.3s-4.6,18.1,10.1,21c2.4.5,5.6.4,8.3-.6,1.6-.7,2.9-1.9,3.2-3.7.4-2.2-.6-4.3-3-4.8-2.1-.4-4.1,1-6.1.6-6.3-1.2,3.5-19.5-8.1-21.8-10.2-2-30,14.7-34,13.9-.5-.1-.9-.5-.7-1.2.4-2.1,4-6.3,4.9-11.1,1.1-5.9-3-10.6-10.6-12-4.2-.8-8.3-1.2-12.4-1.2,4.8-31.1-5.1-58.3-27.5-62.7-15.1-2.9-29.2,7.6-32.4,24-3.7,19.1,5.5,37.9,18.8,51.7-8.2,5.4-15,12-19.7,18.7,0,0-2.6,3.7-4,6.7-1.4,3-2.3,5.6-2.8,8.2-1.8,9.4,2.1,17.2,13.2,19.4,13.5,2.6,27-4.9,36.2-18.5,4.4-6.6,4.3-6.6,4.3-6.6ZM110.7,1552.7c-2.7,4.6-4.7,6.6-4.7,6.6-7.2,8.7-15.4,13.3-23.5,11.7-5.6-1.1-7.5-5.3-6.4-10.6.4-2.1.5-3,2.4-6.5,1.9-3.6,4.4-6.6,4.4-6.6,4.2-5.1,9.9-10.3,16.8-14.5,1.6,1.3,3.2,2.6,4.9,3.8.7.5,1.4.8,2.1,1,2.4.5,4.5-1.1,4.9-3.1s-.1-3-1.7-4.2c-.7-.6-1.5-1.1-2.3-1.8,4.8-2.2,10-3.9,15.4-4.9-2.9,11.2-9.5,24.5-12.1,29.1ZM100.6,1522.2c-10.5-10.8-21-27.3-17.4-45.6,2.2-11.4,11.7-18.8,21.7-16.8,17.6,3.4,24.7,27.5,19.9,54.5-8.6,1.2-16.9,4.1-24.2,7.9Z"/>
      <path class="st3" d="M359.4,1426.7c0-1.5-.6-2.8-1.6-3.9l-9.9-9.9c-1-1-2.4-1.6-3.9-1.6s-2.8.6-3.9,1.6l-12.3,12.3c-2.1-1.6-5.2-1.4-7.1.5l-49,49-11,11-66.5,66.5c-5.2,5.2-6.1,13.1-2.8,19.3l-4.4,4.4s-5.3,4.7-1,8.8c2.8,2.6,6.4,1.5,7.4.4l5.8-5.8c2.4,1.3,5,2,7.8,2,4.3,0,8.4-1.7,11.5-4.8l90.8-90.8,11-11,9.7-9.7c1.3,3.1,1,6.8-1,9.7l-10.7,11-18.7,18.7c-2.1,2.1-2.1,5.6,0,7.7,1.1,1.1,2.5,1.6,3.9,1.6s2.8-.5,3.9-1.6l26.4-26.4s5-5.3,7.2-11c1.3-3.4.7-12.5-2.9-17.7l7-7c1-1,1.6-2.4,1.6-3.9s-.4-2.3-1.1-3.3l12.3-12.3c1-1,1.6-2.4,1.6-3.9ZM210.8,1568.7c-1,1-2.3,1.6-3.8,1.6s-2.8-.6-3.8-1.6l-1.2-1.2c-2.1-2.1-2.1-5.5,0-7.5l21.2-21.2,8.8,8.8-21.2,21.2ZM239.7,1539.8l-8.8-8.8,93.6-93.6,8.8,8.8-93.6,93.6ZM337.8,1435.1l-2.1-2.1,8.4-8.4,2.1,2.1-8.4,8.4Z"/>
      <path class="st4" d="M359.4,1426.7c0-1.5-.6-2.8-1.6-3.9l-9.9-9.9c-1-1-2.4-1.6-3.9-1.6s-2.8.6-3.9,1.6l-12.3,12.3c-2.1-1.6-5.2-1.4-7.1.5l-16.4,16.4c3.1,2.4,5.2,4.6,7.4,8.1l12.9-12.9,8.8,8.8-16.5,16.5c.2,1.8.7,14.8.7,14.8l2.8-2.8,9.7-9.7c1.3,3.1,1,6.8-1,9.7l-11.5,11.8s.1,12.6.1,15.4l16.2-16.2s5-5.3,7.2-11c1.3-3.4.7-12.5-2.9-17.7l7-7c1-1,1.6-2.4,1.6-3.9s-.4-2.3-1.1-3.3l12.3-12.3c1-1,1.6-2.4,1.6-3.9ZM337.8,1435.1l-2.1-2.1,8.4-8.4,2.1,2.1-8.4,8.4Z"/>
    </g>
  </g>
  <g>
    <path class="st4" d="M747.5,1434.6h0s-.2,0-.2,0h-212.6c-1.2,0-2.5,0-3.7.2-19.7,2-35.1,18.6-35.1,38.8v104c0,21.5,17.5,39,39,39h208.4c16.2,0,30.1-9.9,36-23.9,1.9-4.3,3-9.1,3-14.2v-108.9c0-19.2-15.6-34.9-34.8-35Z"/>
    <g>
      <path class="st3" d="M585,1554.5c5.2-9,9.4-19.8,12.1-31.9,3.9,0,7.8.2,11.8,1s3,1.5,2.8,3c-1,5.1-4.5,8.5-5.5,13.6-.9,4.5,1.9,7.8,6.2,8.6,11.9,2.3,30.2-15.2,35-14.3s-4.6,18.1,10.1,21c2.4.5,5.6.4,8.3-.6,1.6-.7,2.9-1.9,3.2-3.7s-.6-4.3-3-4.8c-2.1-.4-4.1,1-6.1.6-6.3-1.2,3.5-19.5-8.1-21.8-10.2-2-30,14.7-34,13.9s-.9-.5-.7-1.2c.4-2.1,4-6.3,4.9-11.1,1.1-5.9-3-10.6-10.6-12s-8.3-1.2-12.4-1.2c4.8-31.1-5.1-58.3-27.5-62.7-15.1-2.9-29.2,7.6-32.4,24-3.7,19.1,5.5,37.9,18.8,51.7-8.2,5.4-15,12-19.7,18.7,0,0-2.6,3.7-4,6.7s-2.3,5.6-2.8,8.2c-1.8,9.4,2.1,17.2,13.2,19.4,13.5,2.6,27-4.9,36.2-18.5,4.4-6.6,4.3-6.6,4.3-6.6ZM575.4,1552.7c-2.7,4.6-4.7,6.6-4.7,6.6-7.2,8.7-15.4,13.3-23.5,11.7-5.6-1.1-7.5-5.3-6.4-10.6.4-2.1.5-3,2.4-6.5,1.9-3.6,4.4-6.6,4.4-6.6,4.2-5.1,9.9-10.3,16.8-14.5,1.6,1.3,3.2,2.6,4.9,3.8.7.5,1.4.8,2.1,1,2.4.5,4.5-1.1,4.9-3.1s-.1-3-1.7-4.2c-.7-.6-1.5-1.1-2.3-1.8,4.8-2.2,10-3.9,15.4-4.9-2.9,11.2-9.5,24.5-12.1,29.1ZM565.3,1522.2c-10.5-10.8-21-27.3-17.4-45.6,2.2-11.4,11.7-18.8,21.7-16.8,17.6,3.4,24.7,27.5,19.9,54.5-8.6,1.2-16.9,4.1-24.2,7.9Z"/>
      <path class="st3" d="M824.1,1426.7c0-1.5-.6-2.8-1.6-3.9l-9.9-9.9c-1-1-2.4-1.6-3.9-1.6s-2.8.6-3.9,1.6l-12.3,12.3c-2.1-1.6-5.2-1.4-7.1.5l-49,49-11,11-66.5,66.5c-5.2,5.2-6.1,13.1-2.8,19.3l-4.4,4.4s-5.3,4.7-1,8.8c2.8,2.6,6.4,1.5,7.4.4l5.8-5.8c2.4,1.3,5,2,7.8,2,4.3,0,8.4-1.7,11.5-4.8l90.8-90.8,11-11,9.7-9.7c1.3,3.1,1,6.8-1,9.7l-10.7,11-18.7,18.7c-2.1,2.1-2.1,5.6,0,7.7,1.1,1.1,2.5,1.6,3.9,1.6s2.8-.5,3.9-1.6l26.4-26.4s5-5.3,7.2-11c1.3-3.4.7-12.5-2.9-17.7l7-7c1-1,1.6-2.4,1.6-3.9s-.4-2.3-1.1-3.3l12.3-12.3c1-1,1.6-2.4,1.6-3.9ZM675.5,1568.7c-1,1-2.3,1.6-3.8,1.6s-2.8-.6-3.8-1.6l-1.2-1.2c-2.1-2.1-2.1-5.5,0-7.5l21.2-21.2,8.8,8.8-21.2,21.2ZM704.4,1539.8l-8.8-8.8,93.6-93.6,8.8,8.8-93.6,93.6ZM802.5,1435.1l-2.1-2.1,8.4-8.4,2.1,2.1-8.4,8.4Z"/>
      <path class="st4" d="M824.1,1426.7c0-1.5-.6-2.8-1.6-3.9l-9.9-9.9c-1-1-2.4-1.6-3.9-1.6s-2.8.6-3.9,1.6l-12.3,12.3c-2.1-1.6-5.2-1.4-7.1.5l-16.4,16.4c3.1,2.4,5.2,4.6,7.4,8.1l12.9-12.9,8.8,8.8-16.5,16.5c.2,1.8.7,14.8.7,14.8l2.8-2.8,9.7-9.7c1.3,3.1,1,6.8-1,9.7l-11.5,11.8s.1,12.6.1,15.4l16.2-16.2s5-5.3,7.2-11c1.3-3.4.7-12.5-2.9-17.7l7-7c1-1,1.6-2.4,1.6-3.9s-.4-2.3-1.1-3.3l12.3-12.3c1-1,1.6-2.4,1.6-3.9ZM802.5,1435.1l-2.1-2.1,8.4-8.4,2.1,2.1-8.4,8.4Z"/>
    </g>
  </g>
  <path class="st4" d="M-164,1435.2h0s-.2,0-.2,0h-212.6c-1.2,0-2.5,0-3.7.2-19.7,2-35.1,18.6-35.1,38.8v104c0,21.5,17.5,39,39,39h208.4c16.2,0,30.1-9.9,36-23.9,1.9-4.3,3-9.1,3-14.2v-108.9c0-19.2-15.6-34.9-34.8-35Z"/>
  <g>
    <path class="st3" d="M-326.5,1555.2c5.2-9,9.4-19.8,12.1-31.9,3.9,0,7.8.2,11.8,1s3,1.5,2.8,3c-1,5.1-4.5,8.5-5.5,13.6-.9,4.5,1.9,7.8,6.2,8.6,11.9,2.3,30.2-15.2,35-14.3,4.3.8-4.6,18.1,10.1,21,2.4.5,5.6.4,8.3-.6,1.6-.7,2.9-1.9,3.2-3.7s-.6-4.3-3-4.8-4.1,1-6.1.6c-6.3-1.2,3.5-19.5-8.1-21.8-10.2-2-30,14.7-34,13.9-.5-.1-.9-.5-.7-1.2.4-2.1,4-6.3,4.9-11.1,1.1-5.9-3-10.6-10.6-12s-8.3-1.2-12.4-1.2c4.8-31.1-5.1-58.3-27.5-62.7-15.1-2.9-29.2,7.6-32.4,24-3.7,19.1,5.5,37.9,18.8,51.7-8.2,5.4-15,12-19.7,18.7,0,0-2.6,3.7-4,6.7s-2.3,5.6-2.8,8.2c-1.8,9.4,2.1,17.2,13.2,19.4,13.5,2.6,27-4.9,36.2-18.5,4.4-6.6,4.3-6.6,4.3-6.6ZM-336,1553.3c-2.7,4.6-4.7,6.6-4.7,6.6-7.2,8.7-15.4,13.3-23.5,11.7-5.6-1.1-7.5-5.3-6.4-10.6s.5-3,2.4-6.5c1.9-3.6,4.4-6.6,4.4-6.6,4.2-5.1,9.9-10.3,16.8-14.5,1.6,1.3,3.2,2.6,4.9,3.8.7.5,1.4.8,2.1,1,2.4.5,4.5-1.1,4.9-3.1s-.1-3-1.7-4.2c-.7-.6-1.5-1.1-2.3-1.8,4.8-2.2,10-3.9,15.4-4.9-2.9,11.2-9.5,24.5-12.1,29.1ZM-346.1,1522.9c-10.5-10.8-21-27.3-17.4-45.6,2.2-11.4,11.7-18.8,21.7-16.8,17.6,3.4,24.7,27.5,19.9,54.5-8.6,1.2-16.9,4.1-24.2,7.9Z"/>
    <path class="st3" d="M-87.4,1427.4c0-1.5-.6-2.8-1.6-3.9l-9.9-9.9c-1-1-2.4-1.6-3.9-1.6s-2.8.6-3.9,1.6l-12.3,12.3c-2.1-1.6-5.2-1.4-7.1.5l-49,49-11,11-66.5,66.5c-5.2,5.2-6.1,13.1-2.8,19.3l-4.4,4.4s-5.3,4.7-1,8.8c2.8,2.6,6.4,1.5,7.4.4l5.8-5.8c2.4,1.3,5,2,7.8,2,4.3,0,8.4-1.7,11.5-4.8l90.8-90.8,11-11,9.7-9.7c1.3,3.1,1,6.8-1,9.7l-10.7,11-18.7,18.7c-2.1,2.1-2.1,5.6,0,7.7,1.1,1.1,2.5,1.6,3.9,1.6s2.8-.5,3.9-1.6l26.4-26.4s5-5.3,7.2-11c1.3-3.4.7-12.5-2.9-17.7l7-7c1-1,1.6-2.4,1.6-3.9s-.4-2.3-1.1-3.3l12.3-12.3c1-1,1.6-2.4,1.6-3.9ZM-235.9,1569.4c-1,1-2.3,1.6-3.8,1.6s-2.8-.6-3.8-1.6l-1.2-1.2c-2.1-2.1-2.1-5.5,0-7.5l21.2-21.2,8.8,8.8-21.2,21.2ZM-207,1540.4l-8.8-8.8,93.6-93.6,8.8,8.8-93.6,93.6ZM-108.9,1435.7l-2.1-2.1,8.4-8.4,2.1,2.1-8.4,8.4Z"/>
    <path class="st4" d="M-87.4,1427.4c0-1.5-.6-2.8-1.6-3.9l-9.9-9.9c-1-1-2.4-1.6-3.9-1.6s-2.8.6-3.9,1.6l-12.3,12.3c-2.1-1.6-5.2-1.4-7.1.5l-16.4,16.4c3.1,2.4,5.2,4.6,7.4,8.1l12.9-12.9,8.8,8.8-16.5,16.5c.2,1.8.7,14.8.7,14.8l2.8-2.8,9.7-9.7c1.3,3.1,1,6.8-1,9.7l-11.5,11.8s.1,12.6.1,15.4l16.2-16.2s5-5.3,7.2-11c1.3-3.4.7-12.5-2.9-17.7l7-7c1-1,1.6-2.4,1.6-3.9s-.4-2.3-1.1-3.3l12.3-12.3c1-1,1.6-2.4,1.6-3.9ZM-108.9,1435.7l-2.1-2.1,8.4-8.4,2.1,2.1-8.4,8.4Z"/>
  </g>
  <g>
    <path class="st2" d="M-164,544.7h0s-.2,0-.2,0h-212.6c-1.2,0-2.5,0-3.7.2-19.7,2-35.1,18.6-35.1,38.8v104c0,21.5,17.5,39,39,39h208.4c16.2,0,30.1-9.9,36-23.9,1.9-4.3,3-9.1,3-14.2v-108.9c0-19.2-15.6-34.9-34.8-35Z"/>
    <g>
      <path class="st3" d="M-326.5,664.7c5.2-9,9.4-19.8,12.1-31.9,3.9,0,7.8.2,11.8,1s3,1.5,2.8,3c-1,5.1-4.5,8.5-5.5,13.6-.9,4.5,1.9,7.8,6.2,8.6,11.9,2.3,30.2-15.2,35-14.3s-4.6,18.1,10.1,21,5.6.4,8.3-.6c1.6-.7,2.9-1.9,3.2-3.7.4-2.2-.6-4.3-3-4.8s-4.1,1-6.1.6c-6.3-1.2,3.5-19.5-8.1-21.8-10.2-2-30,14.7-34,13.9-.5-.1-.9-.5-.7-1.2.4-2.1,4-6.3,4.9-11.1,1.1-5.9-3-10.6-10.6-12-4.2-.8-8.3-1.2-12.4-1.2,4.8-31.1-5.1-58.3-27.5-62.7-15.1-2.9-29.2,7.6-32.4,24-3.7,19.1,5.5,37.9,18.8,51.7-8.2,5.4-15,12-19.7,18.7,0,0-2.6,3.7-4,6.7s-2.3,5.6-2.8,8.2c-1.8,9.4,2.1,17.2,13.2,19.4,13.5,2.6,27-4.9,36.2-18.5,4.4-6.6,4.3-6.6,4.3-6.6ZM-336,662.8c-2.7,4.6-4.7,6.6-4.7,6.6-7.2,8.7-15.4,13.3-23.5,11.7s-7.5-5.3-6.4-10.6.5-3,2.4-6.5c1.9-3.6,4.4-6.6,4.4-6.6,4.2-5.1,9.9-10.3,16.8-14.5,1.6,1.3,3.2,2.6,4.9,3.8.7.5,1.4.8,2.1,1,2.4.5,4.5-1.1,4.9-3.1s-.1-3-1.7-4.2c-.7-.6-1.5-1.1-2.3-1.8,4.8-2.2,10-3.9,15.4-4.9-2.9,11.2-9.5,24.5-12.1,29.1ZM-346.1,632.3c-10.5-10.8-21-27.3-17.4-45.6,2.2-11.4,11.7-18.8,21.7-16.8,17.6,3.4,24.7,27.5,19.9,54.5-8.6,1.2-16.9,4.1-24.2,7.9Z"/>
      <path class="st3" d="M-87.4,536.8c0-1.5-.6-2.8-1.6-3.9l-9.9-9.9c-1-1-2.4-1.6-3.9-1.6s-2.8.6-3.9,1.6l-12.3,12.3c-2.1-1.6-5.2-1.4-7.1.5l-49,49-11,11-66.5,66.5c-5.2,5.2-6.1,13.1-2.8,19.3l-4.4,4.4s-5.3,4.7-1,8.8c2.8,2.6,6.4,1.5,7.4.4l5.8-5.8c2.4,1.3,5,2,7.8,2,4.3,0,8.4-1.7,11.5-4.8l90.8-90.8,11-11,9.7-9.7c1.3,3.1,1,6.8-1,9.7l-10.7,11-18.7,18.7c-2.1,2.1-2.1,5.6,0,7.7,1.1,1.1,2.5,1.6,3.9,1.6s2.8-.5,3.9-1.6l26.4-26.4s5-5.3,7.2-11c1.3-3.4.7-12.5-2.9-17.7l7-7c1-1,1.6-2.4,1.6-3.9s-.4-2.3-1.1-3.3l12.3-12.3c1-1,1.6-2.4,1.6-3.9ZM-235.9,678.8c-1,1-2.3,1.6-3.8,1.6s-2.8-.6-3.8-1.6l-1.2-1.2c-2.1-2.1-2.1-5.5,0-7.5l21.2-21.2,8.8,8.8-21.2,21.2ZM-207,649.9l-8.8-8.8,93.6-93.6,8.8,8.8-93.6,93.6ZM-108.9,545.2l-2.1-2.1,8.4-8.4,2.1,2.1-8.4,8.4Z"/>
      <path class="st2" d="M-87.4,536.8c0-1.5-.6-2.8-1.6-3.9l-9.9-9.9c-1-1-2.4-1.6-3.9-1.6s-2.8.6-3.9,1.6l-12.3,12.3c-2.1-1.6-5.2-1.4-7.1.5l-16.4,16.4c3.1,2.4,5.2,4.6,7.4,8.1l12.9-12.9,8.8,8.8-16.5,16.5c.2,1.8.7,14.8.7,14.8l2.8-2.8,9.7-9.7c1.3,3.1,1,6.8-1,9.7l-11.5,11.8s.1,12.6.1,15.4l16.2-16.2s5-5.3,7.2-11c1.3-3.4.7-12.5-2.9-17.7l7-7c1-1,1.6-2.4,1.6-3.9s-.4-2.3-1.1-3.3l12.3-12.3c1-1,1.6-2.4,1.6-3.9ZM-108.9,545.2l-2.1-2.1,8.4-8.4,2.1,2.1-8.4,8.4Z"/>
    </g>
  </g>
  <g>
    <path class="st2" d="M-164,1822.1h0s-.2,0-.2,0h-212.6c-1.2,0-2.5,0-3.7.2-19.7,2-35.1,18.6-35.1,38.8v104c0,21.5,17.5,39,39,39h208.4c16.2,0,30.1-9.9,36-23.9,1.9-4.3,3-9.1,3-14.2v-108.9c0-19.2-15.6-34.9-34.8-35Z"/>
    <g>
      <path class="st3" d="M-326.5,1942c5.2-9,9.4-19.8,12.1-31.9,3.9,0,7.8.2,11.8,1,2.1.4,3,1.5,2.8,3-1,5.1-4.5,8.5-5.5,13.6-.9,4.5,1.9,7.8,6.2,8.6,11.9,2.3,30.2-15.2,35-14.3,4.3.8-4.6,18.1,10.1,21,2.4.5,5.6.4,8.3-.6,1.6-.7,2.9-1.9,3.2-3.7.4-2.2-.6-4.3-3-4.8s-4.1,1-6.1.6c-6.3-1.2,3.5-19.5-8.1-21.8s-30,14.7-34,13.9c-.5-.1-.9-.5-.7-1.2.4-2.1,4-6.3,4.9-11.1,1.1-5.9-3-10.6-10.6-12-4.2-.8-8.3-1.2-12.4-1.2,4.8-31.1-5.1-58.3-27.5-62.7-15.1-2.9-29.2,7.6-32.4,24-3.7,19.1,5.5,37.9,18.8,51.7-8.2,5.4-15,12-19.7,18.7,0,0-2.6,3.7-4,6.7-1.4,3-2.3,5.6-2.8,8.2-1.8,9.4,2.1,17.2,13.2,19.4,13.5,2.6,27-4.9,36.2-18.5,4.4-6.6,4.3-6.6,4.3-6.6ZM-336,1940.2c-2.7,4.6-4.7,6.6-4.7,6.6-7.2,8.7-15.4,13.3-23.5,11.7-5.6-1.1-7.5-5.3-6.4-10.6s.5-3,2.4-6.5c1.9-3.6,4.4-6.6,4.4-6.6,4.2-5.1,9.9-10.3,16.8-14.5,1.6,1.3,3.2,2.6,4.9,3.8.7.5,1.4.8,2.1,1,2.4.5,4.5-1.1,4.9-3.1s-.1-3-1.7-4.2c-.7-.6-1.5-1.1-2.3-1.8,4.8-2.2,10-3.9,15.4-4.9-2.9,11.2-9.5,24.5-12.1,29.1ZM-346.1,1909.7c-10.5-10.8-21-27.3-17.4-45.6,2.2-11.4,11.7-18.8,21.7-16.8,17.6,3.4,24.7,27.5,19.9,54.5-8.6,1.2-16.9,4.1-24.2,7.9Z"/>
      <path class="st3" d="M-87.4,1814.2c0-1.5-.6-2.8-1.6-3.9l-9.9-9.9c-1-1-2.4-1.6-3.9-1.6s-2.8.6-3.9,1.6l-12.3,12.3c-2.1-1.6-5.2-1.4-7.1.5l-49,49-11,11-66.5,66.5c-5.2,5.2-6.1,13.1-2.8,19.3l-4.4,4.4s-5.3,4.7-1,8.8c2.8,2.6,6.4,1.5,7.4.4l5.8-5.8c2.4,1.3,5,2,7.8,2,4.3,0,8.4-1.7,11.5-4.8l90.8-90.8,11-11,9.7-9.7c1.3,3.1,1,6.8-1,9.7l-10.7,11-18.7,18.7c-2.1,2.1-2.1,5.6,0,7.7,1.1,1.1,2.5,1.6,3.9,1.6s2.8-.5,3.9-1.6l26.4-26.4s5-5.3,7.2-11c1.3-3.4.7-12.5-2.9-17.7l7-7c1-1,1.6-2.4,1.6-3.9s-.4-2.3-1.1-3.3l12.3-12.3c1-1,1.6-2.4,1.6-3.9ZM-235.9,1956.2c-1,1-2.3,1.6-3.8,1.6s-2.8-.6-3.8-1.6l-1.2-1.2c-2.1-2.1-2.1-5.5,0-7.5l21.2-21.2,8.8,8.8-21.2,21.2ZM-207,1927.3l-8.8-8.8,93.6-93.6,8.8,8.8-93.6,93.6ZM-108.9,1822.6l-2.1-2.1,8.4-8.4,2.1,2.1-8.4,8.4Z"/>
      <path class="st2" d="M-87.4,1814.2c0-1.5-.6-2.8-1.6-3.9l-9.9-9.9c-1-1-2.4-1.6-3.9-1.6s-2.8.6-3.9,1.6l-12.3,12.3c-2.1-1.6-5.2-1.4-7.1.5l-16.4,16.4c3.1,2.4,5.2,4.6,7.4,8.1l12.9-12.9,8.8,8.8-16.5,16.5c.2,1.8.7,14.8.7,14.8l2.8-2.8,9.7-9.7c1.3,3.1,1,6.8-1,9.7l-11.5,11.8s.1,12.6.1,15.4l16.2-16.2s5-5.3,7.2-11c1.3-3.4.7-12.5-2.9-17.7l7-7c1-1,1.6-2.4,1.6-3.9s-.4-2.3-1.1-3.3l12.3-12.3c1-1,1.6-2.4,1.6-3.9ZM-108.9,1822.6l-2.1-2.1,8.4-8.4,2.1,2.1-8.4,8.4Z"/>
    </g>
  </g>
  <g>
    <path class="st2" d="M284.9,1822.1h0s-.2,0-.2,0H72.1c-1.2,0-2.5,0-3.7.2-19.7,2-35.1,18.6-35.1,38.8v104c0,21.5,17.5,39,39,39h208.4c16.2,0,30.1-9.9,36-23.9,1.9-4.3,3-9.1,3-14.2v-108.9c0-19.2-15.6-34.9-34.8-35Z"/>
    <g>
      <path class="st3" d="M122.4,1942c5.2-9,9.4-19.8,12.1-31.9,3.9,0,7.8.2,11.8,1,2.1.4,3,1.5,2.8,3-1,5.1-4.5,8.5-5.5,13.6-.9,4.5,1.9,7.8,6.2,8.6,11.9,2.3,30.2-15.2,35-14.3,4.3.8-4.6,18.1,10.1,21,2.4.5,5.6.4,8.3-.6,1.6-.7,2.9-1.9,3.2-3.7.4-2.2-.6-4.3-3-4.8s-4.1,1-6.1.6c-6.3-1.2,3.5-19.5-8.1-21.8-10.2-2-30,14.7-34,13.9-.5-.1-.9-.5-.7-1.2.4-2.1,4-6.3,4.9-11.1,1.1-5.9-3-10.6-10.6-12-4.2-.8-8.3-1.2-12.4-1.2,4.8-31.1-5.1-58.3-27.5-62.7-15.1-2.9-29.2,7.6-32.4,24-3.7,19.1,5.5,37.9,18.8,51.7-8.2,5.4-15,12-19.7,18.7,0,0-2.6,3.7-4,6.7-1.4,3-2.3,5.6-2.8,8.2-1.8,9.4,2.1,17.2,13.2,19.4,13.5,2.6,27-4.9,36.2-18.5,4.4-6.6,4.3-6.6,4.3-6.6ZM112.9,1940.2c-2.7,4.6-4.7,6.6-4.7,6.6-7.2,8.7-15.4,13.3-23.5,11.7-5.6-1.1-7.5-5.3-6.4-10.6s.5-3,2.4-6.5c1.9-3.6,4.4-6.6,4.4-6.6,4.2-5.1,9.9-10.3,16.8-14.5,1.6,1.3,3.2,2.6,4.9,3.8.7.5,1.4.8,2.1,1,2.4.5,4.5-1.1,4.9-3.1s-.1-3-1.7-4.2c-.7-.6-1.5-1.1-2.3-1.8,4.8-2.2,10-3.9,15.4-4.9-2.9,11.2-9.5,24.5-12.1,29.1ZM102.8,1909.7c-10.5-10.8-21-27.3-17.4-45.6,2.2-11.4,11.7-18.8,21.7-16.8,17.6,3.4,24.7,27.5,19.9,54.5-8.6,1.2-16.9,4.1-24.2,7.9Z"/>
      <path class="st3" d="M361.5,1814.2c0-1.5-.6-2.8-1.6-3.9l-9.9-9.9c-1-1-2.4-1.6-3.9-1.6s-2.8.6-3.9,1.6l-12.3,12.3c-2.1-1.6-5.2-1.4-7.1.5l-49,49-11,11-66.5,66.5c-5.2,5.2-6.1,13.1-2.8,19.3l-4.4,4.4s-5.3,4.7-1,8.8c2.8,2.6,6.4,1.5,7.4.4l5.8-5.8c2.4,1.3,5,2,7.8,2,4.3,0,8.4-1.7,11.5-4.8l90.8-90.8,11-11,9.7-9.7c1.3,3.1,1,6.8-1,9.7l-10.7,11-18.7,18.7c-2.1,2.1-2.1,5.6,0,7.7,1.1,1.1,2.5,1.6,3.9,1.6s2.8-.5,3.9-1.6l26.4-26.4s5-5.3,7.2-11c1.3-3.4.7-12.5-2.9-17.7l7-7c1-1,1.6-2.4,1.6-3.9s-.4-2.3-1.1-3.3l12.3-12.3c1-1,1.6-2.4,1.6-3.9ZM213,1956.2c-1,1-2.3,1.6-3.8,1.6s-2.8-.6-3.8-1.6l-1.2-1.2c-2.1-2.1-2.1-5.5,0-7.5l21.2-21.2,8.8,8.8-21.2,21.2ZM241.9,1927.3l-8.8-8.8,93.6-93.6,8.8,8.8-93.6,93.6ZM340,1822.6l-2.1-2.1,8.4-8.4,2.1,2.1-8.4,8.4Z"/>
      <path class="st2" d="M361.5,1814.2c0-1.5-.6-2.8-1.6-3.9l-9.9-9.9c-1-1-2.4-1.6-3.9-1.6s-2.8.6-3.9,1.6l-12.3,12.3c-2.1-1.6-5.2-1.4-7.1.5l-16.4,16.4c3.1,2.4,5.2,4.6,7.4,8.1l12.9-12.9,8.8,8.8-16.5,16.5c.2,1.8.7,14.8.7,14.8l2.8-2.8,9.7-9.7c1.3,3.1,1,6.8-1,9.7l-11.5,11.8s.1,12.6.1,15.4l16.2-16.2s5-5.3,7.2-11c1.3-3.4.7-12.5-2.9-17.7l7-7c1-1,1.6-2.4,1.6-3.9s-.4-2.3-1.1-3.3l12.3-12.3c1-1,1.6-2.4,1.6-3.9ZM340,1822.6l-2.1-2.1,8.4-8.4,2.1,2.1-8.4,8.4Z"/>
    </g>
  </g>
  <g>
    <path class="st2" d="M745.5,1822.1h0s-.2,0-.2,0h-212.6c-1.2,0-2.5,0-3.7.2-19.7,2-35.1,18.6-35.1,38.8v104c0,21.5,17.5,39,39,39h208.4c16.2,0,30.1-9.9,36-23.9,1.9-4.3,3-9.1,3-14.2v-108.9c0-19.2-15.6-34.9-34.8-35Z"/>
    <g>
      <path class="st3" d="M583,1942c5.2-9,9.4-19.8,12.1-31.9,3.9,0,7.8.2,11.8,1,2.1.4,3,1.5,2.8,3-1,5.1-4.5,8.5-5.5,13.6-.9,4.5,1.9,7.8,6.2,8.6,11.9,2.3,30.2-15.2,35-14.3,4.3.8-4.6,18.1,10.1,21,2.4.5,5.6.4,8.3-.6,1.6-.7,2.9-1.9,3.2-3.7.4-2.2-.6-4.3-3-4.8s-4.1,1-6.1.6c-6.3-1.2,3.5-19.5-8.1-21.8-10.2-2-30,14.7-34,13.9-.5-.1-.9-.5-.7-1.2.4-2.1,4-6.3,4.9-11.1,1.1-5.9-3-10.6-10.6-12-4.2-.8-8.3-1.2-12.4-1.2,4.8-31.1-5.1-58.3-27.5-62.7-15.1-2.9-29.2,7.6-32.4,24-3.7,19.1,5.5,37.9,18.8,51.7-8.2,5.4-15,12-19.7,18.7,0,0-2.6,3.7-4,6.7-1.4,3-2.3,5.6-2.8,8.2-1.8,9.4,2.1,17.2,13.2,19.4,13.5,2.6,27-4.9,36.2-18.5,4.4-6.6,4.3-6.6,4.3-6.6ZM573.5,1940.2c-2.7,4.6-4.7,6.6-4.7,6.6-7.2,8.7-15.4,13.3-23.5,11.7-5.6-1.1-7.5-5.3-6.4-10.6s.5-3,2.4-6.5c1.9-3.6,4.4-6.6,4.4-6.6,4.2-5.1,9.9-10.3,16.8-14.5,1.6,1.3,3.2,2.6,4.9,3.8.7.5,1.4.8,2.1,1,2.4.5,4.5-1.1,4.9-3.1s-.1-3-1.7-4.2c-.7-.6-1.5-1.1-2.3-1.8,4.8-2.2,10-3.9,15.4-4.9-2.9,11.2-9.5,24.5-12.1,29.1ZM563.4,1909.7c-10.5-10.8-21-27.3-17.4-45.6,2.2-11.4,11.7-18.8,21.7-16.8,17.6,3.4,24.7,27.5,19.9,54.5-8.6,1.2-16.9,4.1-24.2,7.9Z"/>
      <path class="st3" d="M822.1,1814.2c0-1.5-.6-2.8-1.6-3.9l-9.9-9.9c-1-1-2.4-1.6-3.9-1.6s-2.8.6-3.9,1.6l-12.3,12.3c-2.1-1.6-5.2-1.4-7.1.5l-49,49-11,11-66.5,66.5c-5.2,5.2-6.1,13.1-2.8,19.3l-4.4,4.4s-5.3,4.7-1,8.8c2.8,2.6,6.4,1.5,7.4.4l5.8-5.8c2.4,1.3,5,2,7.8,2,4.3,0,8.4-1.7,11.5-4.8l90.8-90.8,11-11,9.7-9.7c1.3,3.1,1,6.8-1,9.7l-10.7,11-18.7,18.7c-2.1,2.1-2.1,5.6,0,7.7,1.1,1.1,2.5,1.6,3.9,1.6s2.8-.5,3.9-1.6l26.4-26.4s5-5.3,7.2-11c1.3-3.4.7-12.5-2.9-17.7l7-7c1-1,1.6-2.4,1.6-3.9s-.4-2.3-1.1-3.3l12.3-12.3c1-1,1.6-2.4,1.6-3.9ZM673.6,1956.2c-1,1-2.3,1.6-3.8,1.6s-2.8-.6-3.8-1.6l-1.2-1.2c-2.1-2.1-2.1-5.5,0-7.5l21.2-21.2,8.8,8.8-21.2,21.2ZM702.5,1927.3l-8.8-8.8,93.6-93.6,8.8,8.8-93.6,93.6ZM800.6,1822.6l-2.1-2.1,8.4-8.4,2.1,2.1-8.4,8.4Z"/>
      <path class="st2" d="M822.1,1814.2c0-1.5-.6-2.8-1.6-3.9l-9.9-9.9c-1-1-2.4-1.6-3.9-1.6s-2.8.6-3.9,1.6l-12.3,12.3c-2.1-1.6-5.2-1.4-7.1.5l-16.4,16.4c3.1,2.4,5.2,4.6,7.4,8.1l12.9-12.9,8.8,8.8-16.5,16.5c.2,1.8.7,14.8.7,14.8l2.8-2.8,9.7-9.7c1.3,3.1,1,6.8-1,9.7l-11.5,11.8s.1,12.6.1,15.4l16.2-16.2s5-5.3,7.2-11c1.3-3.4.7-12.5-2.9-17.7l7-7c1-1,1.6-2.4,1.6-3.9s-.4-2.3-1.1-3.3l12.3-12.3c1-1,1.6-2.4,1.6-3.9ZM800.6,1822.6l-2.1-2.1,8.4-8.4,2.1,2.1-8.4,8.4Z"/>
    </g>
  </g>
  <g>
    <path class="st0" d="M290.8,546h0s-.2,0-.2,0H78c-1.2,0-2.5,0-3.7.2-19.7,2-35.1,18.6-35.1,38.8v104c0,21.5,17.5,39,39,39h208.4c16.2,0,30.1-9.9,36-23.9,1.9-4.3,3-9.1,3-14.2v-108.9c0-19.2-15.6-34.9-34.8-35Z"/>
    <g>
      <path class="st3" d="M128.3,666c5.2-9,9.4-19.8,12.1-31.9,3.9,0,7.8.2,11.8,1,2.1.4,3,1.5,2.8,3-1,5.1-4.5,8.5-5.5,13.6s1.9,7.8,6.2,8.6c11.9,2.3,30.2-15.2,35-14.3s-4.6,18.1,10.1,21c2.4.5,5.6.4,8.3-.6,1.6-.7,2.9-1.9,3.2-3.7s-.6-4.3-3-4.8-4.1,1-6.1.6c-6.3-1.2,3.5-19.5-8.1-21.8-10.2-2-30,14.7-34,13.9-.5-.1-.9-.5-.7-1.2.4-2.1,4-6.3,4.9-11.1,1.1-5.9-3-10.6-10.6-12s-8.3-1.2-12.4-1.2c4.8-31.1-5.1-58.3-27.5-62.7-15.1-2.9-29.2,7.6-32.4,24-3.7,19.1,5.5,37.9,18.8,51.7-8.2,5.4-15,12-19.7,18.7,0,0-2.6,3.7-4,6.7s-2.3,5.6-2.8,8.2c-1.8,9.4,2.1,17.2,13.2,19.4,13.5,2.6,27-4.9,36.2-18.5,4.4-6.6,4.3-6.6,4.3-6.6ZM118.7,664.1c-2.7,4.6-4.7,6.6-4.7,6.6-7.2,8.7-15.4,13.3-23.5,11.7s-7.5-5.3-6.4-10.6c.4-2.1.5-3,2.4-6.5,1.9-3.6,4.4-6.6,4.4-6.6,4.2-5.1,9.9-10.3,16.8-14.5,1.6,1.3,3.2,2.6,4.9,3.8.7.5,1.4.8,2.1,1,2.4.5,4.5-1.1,4.9-3.1s-.1-3-1.7-4.2c-.7-.6-1.5-1.1-2.3-1.8,4.8-2.2,10-3.9,15.4-4.9-2.9,11.2-9.5,24.5-12.1,29.1ZM108.6,633.7c-10.5-10.8-21-27.3-17.4-45.6,2.2-11.4,11.7-18.8,21.7-16.8,17.6,3.4,24.7,27.5,19.9,54.5-8.6,1.2-16.9,4.1-24.2,7.9Z"/>
      <path class="st3" d="M367.4,538.2c0-1.5-.6-2.8-1.6-3.9l-9.9-9.9c-1-1-2.4-1.6-3.9-1.6s-2.8.6-3.9,1.6l-12.3,12.3c-2.1-1.6-5.2-1.4-7.1.5l-49,49-11,11-66.5,66.5c-5.2,5.2-6.1,13.1-2.8,19.3l-4.4,4.4s-5.3,4.7-1,8.8c2.8,2.6,6.4,1.5,7.4.4l5.8-5.8c2.4,1.3,5,2,7.8,2,4.3,0,8.4-1.7,11.5-4.8l90.8-90.8,11-11,9.7-9.7c1.3,3.1,1,6.8-1,9.7l-10.7,11-18.7,18.7c-2.1,2.1-2.1,5.6,0,7.7,1.1,1.1,2.5,1.6,3.9,1.6s2.8-.5,3.9-1.6l26.4-26.4s5-5.3,7.2-11c1.3-3.4.7-12.5-2.9-17.7l7-7c1-1,1.6-2.4,1.6-3.9s-.4-2.3-1.1-3.3l12.3-12.3c1-1,1.6-2.4,1.6-3.9ZM218.8,680.1c-1,1-2.3,1.6-3.8,1.6s-2.8-.6-3.8-1.6l-1.2-1.2c-2.1-2.1-2.1-5.5,0-7.5l21.2-21.2,8.8,8.8-21.2,21.2ZM247.7,651.2l-8.8-8.8,93.6-93.6,8.8,8.8-93.6,93.6ZM345.8,546.5l-2.1-2.1,8.4-8.4,2.1,2.1-8.4,8.4Z"/>
      <path class="st0" d="M367.4,538.2c0-1.5-.6-2.8-1.6-3.9l-9.9-9.9c-1-1-2.4-1.6-3.9-1.6s-2.8.6-3.9,1.6l-12.3,12.3c-2.1-1.6-5.2-1.4-7.1.5l-16.4,16.4c3.1,2.4,5.2,4.6,7.4,8.1l12.9-12.9,8.8,8.8-16.5,16.5c.2,1.8.7,14.8.7,14.8l2.8-2.8,9.7-9.7c1.3,3.1,1,6.8-1,9.7l-11.5,11.8s.1,12.6.1,15.4l16.2-16.2s5-5.3,7.2-11c1.3-3.4.7-12.5-2.9-17.7l7-7c1-1,1.6-2.4,1.6-3.9s-.4-2.3-1.1-3.3l12.3-12.3c1-1,1.6-2.4,1.6-3.9ZM345.8,546.5l-2.1-2.1,8.4-8.4,2.1,2.1-8.4,8.4Z"/>
    </g>
  </g>
  <g>
    <path class="st0" d="M290.8,1053.9h0s-.2,0-.2,0H78c-1.2,0-2.5,0-3.7.2-19.7,2-35.1,18.6-35.1,38.8v104c0,21.5,17.5,39,39,39h208.4c16.2,0,30.1-9.9,36-23.9,1.9-4.3,3-9.1,3-14.2v-108.9c0-19.2-15.6-34.9-34.8-35Z"/>
    <g>
      <path class="st3" d="M128.3,1173.9c5.2-9,9.4-19.8,12.1-31.9,3.9,0,7.8.2,11.8,1s3,1.5,2.8,3c-1,5.1-4.5,8.5-5.5,13.6-.9,4.5,1.9,7.8,6.2,8.6,11.9,2.3,30.2-15.2,35-14.3,4.3.8-4.6,18.1,10.1,21,2.4.5,5.6.4,8.3-.6,1.6-.7,2.9-1.9,3.2-3.7s-.6-4.3-3-4.8-4.1,1-6.1.6c-6.3-1.2,3.5-19.5-8.1-21.8-10.2-2-30,14.7-34,13.9s-.9-.5-.7-1.2c.4-2.1,4-6.3,4.9-11.1,1.1-5.9-3-10.6-10.6-12-4.2-.8-8.3-1.2-12.4-1.2,4.8-31.1-5.1-58.3-27.5-62.7-15.1-2.9-29.2,7.6-32.4,24-3.7,19.1,5.5,37.9,18.8,51.7-8.2,5.4-15,12-19.7,18.7,0,0-2.6,3.7-4,6.7-1.4,3-2.3,5.6-2.8,8.2-1.8,9.4,2.1,17.2,13.2,19.4,13.5,2.6,27-4.9,36.2-18.5,4.4-6.6,4.3-6.6,4.3-6.6ZM118.7,1172c-2.7,4.6-4.7,6.6-4.7,6.6-7.2,8.7-15.4,13.3-23.5,11.7-5.6-1.1-7.5-5.3-6.4-10.6.4-2.1.5-3,2.4-6.5,1.9-3.6,4.4-6.6,4.4-6.6,4.2-5.1,9.9-10.3,16.8-14.5,1.6,1.3,3.2,2.6,4.9,3.8.7.5,1.4.8,2.1,1,2.4.5,4.5-1.1,4.9-3.1s-.1-3-1.7-4.2c-.7-.6-1.5-1.1-2.3-1.8,4.8-2.2,10-3.9,15.4-4.9-2.9,11.2-9.5,24.5-12.1,29.1ZM108.6,1141.6c-10.5-10.8-21-27.3-17.4-45.6,2.2-11.4,11.7-18.8,21.7-16.8,17.6,3.4,24.7,27.5,19.9,54.5-8.6,1.2-16.9,4.1-24.2,7.9Z"/>
      <path class="st3" d="M367.4,1046.1c0-1.5-.6-2.8-1.6-3.9l-9.9-9.9c-1-1-2.4-1.6-3.9-1.6s-2.8.6-3.9,1.6l-12.3,12.3c-2.1-1.6-5.2-1.4-7.1.5l-49,49-11,11-66.5,66.5c-5.2,5.2-6.1,13.1-2.8,19.3l-4.4,4.4s-5.3,4.7-1,8.8c2.8,2.6,6.4,1.5,7.4.4l5.8-5.8c2.4,1.3,5,2,7.8,2,4.3,0,8.4-1.7,11.5-4.8l90.8-90.8,11-11,9.7-9.7c1.3,3.1,1,6.8-1,9.7l-10.7,11-18.7,18.7c-2.1,2.1-2.1,5.6,0,7.7,1.1,1.1,2.5,1.6,3.9,1.6s2.8-.5,3.9-1.6l26.4-26.4s5-5.3,7.2-11c1.3-3.4.7-12.5-2.9-17.7l7-7c1-1,1.6-2.4,1.6-3.9s-.4-2.3-1.1-3.3l12.3-12.3c1-1,1.6-2.4,1.6-3.9ZM218.8,1188.1c-1,1-2.3,1.6-3.8,1.6s-2.8-.6-3.8-1.6l-1.2-1.2c-2.1-2.1-2.1-5.5,0-7.5l21.2-21.2,8.8,8.8-21.2,21.2ZM247.7,1159.1l-8.8-8.8,93.6-93.6,8.8,8.8-93.6,93.6ZM345.8,1054.4l-2.1-2.1,8.4-8.4,2.1,2.1-8.4,8.4Z"/>
      <path class="st0" d="M367.4,1046.1c0-1.5-.6-2.8-1.6-3.9l-9.9-9.9c-1-1-2.4-1.6-3.9-1.6s-2.8.6-3.9,1.6l-12.3,12.3c-2.1-1.6-5.2-1.4-7.1.5l-16.4,16.4c3.1,2.4,5.2,4.6,7.4,8.1l12.9-12.9,8.8,8.8-16.5,16.5c.2,1.8.7,14.8.7,14.8l2.8-2.8,9.7-9.7c1.3,3.1,1,6.8-1,9.7l-11.5,11.8s.1,12.6.1,15.4l16.2-16.2s5-5.3,7.2-11c1.3-3.4.7-12.5-2.9-17.7l7-7c1-1,1.6-2.4,1.6-3.9s-.4-2.3-1.1-3.3l12.3-12.3c1-1,1.6-2.4,1.6-3.9ZM345.8,1054.4l-2.1-2.1,8.4-8.4,2.1,2.1-8.4,8.4Z"/>
    </g>
  </g>
  <g>
    <path class="st0" d="M-164,1053.9h0s-.2,0-.2,0h-212.6c-1.2,0-2.5,0-3.7.2-19.7,2-35.1,18.6-35.1,38.8v104c0,21.5,17.5,39,39,39h208.4c16.2,0,30.1-9.9,36-23.9,1.9-4.3,3-9.1,3-14.2v-108.9c0-19.2-15.6-34.9-34.8-35Z"/>
    <g>
      <path class="st3" d="M-326.5,1173.9c5.2-9,9.4-19.8,12.1-31.9,3.9,0,7.8.2,11.8,1s3,1.5,2.8,3c-1,5.1-4.5,8.5-5.5,13.6-.9,4.5,1.9,7.8,6.2,8.6,11.9,2.3,30.2-15.2,35-14.3,4.3.8-4.6,18.1,10.1,21,2.4.5,5.6.4,8.3-.6,1.6-.7,2.9-1.9,3.2-3.7s-.6-4.3-3-4.8-4.1,1-6.1.6c-6.3-1.2,3.5-19.5-8.1-21.8-10.2-2-30,14.7-34,13.9s-.9-.5-.7-1.2c.4-2.1,4-6.3,4.9-11.1,1.1-5.9-3-10.6-10.6-12-4.2-.8-8.3-1.2-12.4-1.2,4.8-31.1-5.1-58.3-27.5-62.7-15.1-2.9-29.2,7.6-32.4,24-3.7,19.1,5.5,37.9,18.8,51.7-8.2,5.4-15,12-19.7,18.7,0,0-2.6,3.7-4,6.7s-2.3,5.6-2.8,8.2c-1.8,9.4,2.1,17.2,13.2,19.4,13.5,2.6,27-4.9,36.2-18.5,4.4-6.6,4.3-6.6,4.3-6.6ZM-336,1172c-2.7,4.6-4.7,6.6-4.7,6.6-7.2,8.7-15.4,13.3-23.5,11.7-5.6-1.1-7.5-5.3-6.4-10.6.4-2.1.5-3,2.4-6.5,1.9-3.6,4.4-6.6,4.4-6.6,4.2-5.1,9.9-10.3,16.8-14.5,1.6,1.3,3.2,2.6,4.9,3.8.7.5,1.4.8,2.1,1,2.4.5,4.5-1.1,4.9-3.1s-.1-3-1.7-4.2c-.7-.6-1.5-1.1-2.3-1.8,4.8-2.2,10-3.9,15.4-4.9-2.9,11.2-9.5,24.5-12.1,29.1ZM-346.1,1141.6c-10.5-10.8-21-27.3-17.4-45.6s11.7-18.8,21.7-16.8c17.6,3.4,24.7,27.5,19.9,54.5-8.6,1.2-16.9,4.1-24.2,7.9Z"/>
      <path class="st3" d="M-87.4,1046.1c0-1.5-.6-2.8-1.6-3.9l-9.9-9.9c-1-1-2.4-1.6-3.9-1.6s-2.8.6-3.9,1.6l-12.3,12.3c-2.1-1.6-5.2-1.4-7.1.5l-49,49-11,11-66.5,66.5c-5.2,5.2-6.1,13.1-2.8,19.3l-4.4,4.4s-5.3,4.7-1,8.8c2.8,2.6,6.4,1.5,7.4.4l5.8-5.8c2.4,1.3,5,2,7.8,2,4.3,0,8.4-1.7,11.5-4.8l90.8-90.8,11-11,9.7-9.7c1.3,3.1,1,6.8-1,9.7l-10.7,11-18.7,18.7c-2.1,2.1-2.1,5.6,0,7.7,1.1,1.1,2.5,1.6,3.9,1.6s2.8-.5,3.9-1.6l26.4-26.4s5-5.3,7.2-11c1.3-3.4.7-12.5-2.9-17.7l7-7c1-1,1.6-2.4,1.6-3.9s-.4-2.3-1.1-3.3l12.3-12.3c1-1,1.6-2.4,1.6-3.9ZM-235.9,1188.1c-1,1-2.3,1.6-3.8,1.6s-2.8-.6-3.8-1.6l-1.2-1.2c-2.1-2.1-2.1-5.5,0-7.5l21.2-21.2,8.8,8.8-21.2,21.2ZM-207,1159.1l-8.8-8.8,93.6-93.6,8.8,8.8-93.6,93.6ZM-108.9,1054.4l-2.1-2.1,8.4-8.4,2.1,2.1-8.4,8.4Z"/>
      <path class="st0" d="M-87.4,1046.1c0-1.5-.6-2.8-1.6-3.9l-9.9-9.9c-1-1-2.4-1.6-3.9-1.6s-2.8.6-3.9,1.6l-12.3,12.3c-2.1-1.6-5.2-1.4-7.1.5l-16.4,16.4c3.1,2.4,5.2,4.6,7.4,8.1l12.9-12.9,8.8,8.8-16.5,16.5c.2,1.8.7,14.8.7,14.8l2.8-2.8,9.7-9.7c1.3,3.1,1,6.8-1,9.7l-11.5,11.8s.1,12.6.1,15.4l16.2-16.2s5-5.3,7.2-11c1.3-3.4.7-12.5-2.9-17.7l7-7c1-1,1.6-2.4,1.6-3.9s-.4-2.3-1.1-3.3l12.3-12.3c1-1,1.6-2.4,1.6-3.9ZM-108.9,1054.4l-2.1-2.1,8.4-8.4,2.1,2.1-8.4,8.4Z"/>
    </g>
  </g>
  <g>
    <path class="st0" d="M745.5,1053.9h0s-.2,0-.2,0h-212.6c-1.2,0-2.5,0-3.7.2-19.7,2-35.1,18.6-35.1,38.8v104c0,21.5,17.5,39,39,39h208.4c16.2,0,30.1-9.9,36-23.9,1.9-4.3,3-9.1,3-14.2v-108.9c0-19.2-15.6-34.9-34.8-35Z"/>
    <g>
      <path class="st3" d="M583,1173.9c5.2-9,9.4-19.8,12.1-31.9,3.9,0,7.8.2,11.8,1s3,1.5,2.8,3c-1,5.1-4.5,8.5-5.5,13.6-.9,4.5,1.9,7.8,6.2,8.6,11.9,2.3,30.2-15.2,35-14.3,4.3.8-4.6,18.1,10.1,21,2.4.5,5.6.4,8.3-.6,1.6-.7,2.9-1.9,3.2-3.7.4-2.2-.6-4.3-3-4.8s-4.1,1-6.1.6c-6.3-1.2,3.5-19.5-8.1-21.8-10.2-2-30,14.7-34,13.9s-.9-.5-.7-1.2c.4-2.1,4-6.3,4.9-11.1,1.1-5.9-3-10.6-10.6-12-4.2-.8-8.3-1.2-12.4-1.2,4.8-31.1-5.1-58.3-27.5-62.7-15.1-2.9-29.2,7.6-32.4,24-3.7,19.1,5.5,37.9,18.8,51.7-8.2,5.4-15,12-19.7,18.7,0,0-2.6,3.7-4,6.7-1.4,3-2.3,5.6-2.8,8.2-1.8,9.4,2.1,17.2,13.2,19.4,13.5,2.6,27-4.9,36.2-18.5,4.4-6.6,4.3-6.6,4.3-6.6ZM573.5,1172c-2.7,4.6-4.7,6.6-4.7,6.6-7.2,8.7-15.4,13.3-23.5,11.7-5.6-1.1-7.5-5.3-6.4-10.6s.5-3,2.4-6.5c1.9-3.6,4.4-6.6,4.4-6.6,4.2-5.1,9.9-10.3,16.8-14.5,1.6,1.3,3.2,2.6,4.9,3.8.7.5,1.4.8,2.1,1,2.4.5,4.5-1.1,4.9-3.1s-.1-3-1.7-4.2c-.7-.6-1.5-1.1-2.3-1.8,4.8-2.2,10-3.9,15.4-4.9-2.9,11.2-9.5,24.5-12.1,29.1ZM563.4,1141.6c-10.5-10.8-21-27.3-17.4-45.6,2.2-11.4,11.7-18.8,21.7-16.8,17.6,3.4,24.7,27.5,19.9,54.5-8.6,1.2-16.9,4.1-24.2,7.9Z"/>
      <path class="st3" d="M822.1,1046.1c0-1.5-.6-2.8-1.6-3.9l-9.9-9.9c-1-1-2.4-1.6-3.9-1.6s-2.8.6-3.9,1.6l-12.3,12.3c-2.1-1.6-5.2-1.4-7.1.5l-49,49-11,11-66.5,66.5c-5.2,5.2-6.1,13.1-2.8,19.3l-4.4,4.4s-5.3,4.7-1,8.8c2.8,2.6,6.4,1.5,7.4.4l5.8-5.8c2.4,1.3,5,2,7.8,2,4.3,0,8.4-1.7,11.5-4.8l90.8-90.8,11-11,9.7-9.7c1.3,3.1,1,6.8-1,9.7l-10.7,11-18.7,18.7c-2.1,2.1-2.1,5.6,0,7.7,1.1,1.1,2.5,1.6,3.9,1.6s2.8-.5,3.9-1.6l26.4-26.4s5-5.3,7.2-11c1.3-3.4.7-12.5-2.9-17.7l7-7c1-1,1.6-2.4,1.6-3.9s-.4-2.3-1.1-3.3l12.3-12.3c1-1,1.6-2.4,1.6-3.9ZM673.6,1188.1c-1,1-2.3,1.6-3.8,1.6s-2.8-.6-3.8-1.6l-1.2-1.2c-2.1-2.1-2.1-5.5,0-7.5l21.2-21.2,8.8,8.8-21.2,21.2ZM702.5,1159.1l-8.8-8.8,93.6-93.6,8.8,8.8-93.6,93.6ZM800.6,1054.4l-2.1-2.1,8.4-8.4,2.1,2.1-8.4,8.4Z"/>
      <path class="st0" d="M822.1,1046.1c0-1.5-.6-2.8-1.6-3.9l-9.9-9.9c-1-1-2.4-1.6-3.9-1.6s-2.8.6-3.9,1.6l-12.3,12.3c-2.1-1.6-5.2-1.4-7.1.5l-16.4,16.4c3.1,2.4,5.2,4.6,7.4,8.1l12.9-12.9,8.8,8.8-16.5,16.5c.2,1.8.7,14.8.7,14.8l2.8-2.8,9.7-9.7c1.3,3.1,1,6.8-1,9.7l-11.5,11.8s.1,12.6.1,15.4l16.2-16.2s5-5.3,7.2-11c1.3-3.4.7-12.5-2.9-17.7l7-7c1-1,1.6-2.4,1.6-3.9s-.4-2.3-1.1-3.3l12.3-12.3c1-1,1.6-2.4,1.6-3.9ZM800.6,1054.4l-2.1-2.1,8.4-8.4,2.1,2.1-8.4,8.4Z"/>
    </g>
  </g>
  <g>
    <path class="st3" d="M1146.4,201.3l1.2,1.2c1,1,2.3,1.6,3.8,1.6s2.8-.6,3.8-1.6l21.2-21.2-8.8-8.8-21.2,21.2c-2.1,2.1-2.1,5.5,0,7.5Z"/>
    <path class="st3" d="M1050.9,171.4c-.7-.1-1.4-.5-2.1-1-1.6-1.2-3.3-2.5-4.9-3.8-6.8,4.2-12.6,9.3-16.8,14.5,0,0-2.5,3.1-4.4,6.6-1.9,3.6-2,4.5-2.4,6.5-1,5.3.8,9.5,6.4,10.6,8.1,1.6,16.3-3,23.5-11.7,0,0,2.1-1.9,4.7-6.6,2.7-4.6,9.2-17.9,12.1-29.1-5.4,1-10.6,2.7-15.4,4.9.8.6,1.5,1.2,2.3,1.8,1.5,1.2,2,2.7,1.7,4.2-.4,2-2.5,3.5-4.9,3.1Z"/>
    <path class="st3" d="M1049.3,93.7c-10-2-19.5,5.4-21.7,16.8-3.6,18.2,6.9,34.7,17.4,45.6,7.4-3.8,15.6-6.7,24.2-7.9,4.7-26.9-2.4-51-19.9-54.5Z"/>
    <path class="st3" d="M1303.7,60.7c0-1.5-.6-2.8-1.6-3.9l-9.9-9.9c-1-1-2.4-1.6-3.9-1.6s-2.8.6-3.9,1.6l-12.3,12.3c-2.1-1.6-5.2-1.4-7.1.5l-16.4,16.4c3.1,2.4,5.2,4.6,7.4,8l-80.7,80.7,8.8,8.8,77.1-77.1c-.9-4.5-2.7-8.6-5.1-12.3l12.8-12.8,8.8,8.8-16.5,16.5c.2,1.7.6,13.7.7,14.7l-8.1,8.1-90.8,90.8c-3.1,3.1-7.2,4.8-11.5,4.8s-5.4-.7-7.8-2l-5.8,5.8c-1,1.1-4.5,2.3-7.4-.4-4.3-4,1-8.8,1-8.8l4.4-4.4c-2.7-5-2.6-11.1.3-16.1-13.5-3.4-5-19.9-9.2-20.7-4.7-.9-23.1,16.6-35,14.3-4.3-.8-7-4.2-6.2-8.6,1-5.1,4.5-8.5,5.5-13.6.3-1.5-.7-2.6-2.8-3-4-.8-7.9-1.1-11.8-1-2.8,12.1-7,23-12.1,31.9,0,0,.1,0-4.3,6.6-9.2,13.6-22.7,21.1-36.2,18.5-11.1-2.2-15-9.9-13.2-19.4.5-2.6,1.4-5.2,2.8-8.2,1.4-3,4-6.7,4-6.7,4.7-6.7,11.5-13.3,19.7-18.7-13.3-13.9-22.6-32.6-18.8-51.7,3.2-16.3,17.3-26.9,32.4-24,22.4,4.4,32.3,31.6,27.5,62.7,4.1,0,8.3.4,12.4,1.2,7.6,1.5,11.7,6.2,10.6,12-.9,4.7-4.5,9-4.9,11.1-.1.7.2,1.1.7,1.2,4,.8,23.9-15.9,34-13.9,11.7,2.3,1.8,20.6,8.1,21.8,1.6.3,3.2-.5,4.8-.6l60.8-60.8,11-11,32.5-32.5c-5.9-4.7-13.4-7.6-21.5-7.6h0s-.2,0-.2,0h-212.6c-1.2,0-2.5,0-3.7.2-19.7,2-35.1,18.6-35.1,38.8v104c0,21.5,17.5,39,39,39h208.4c16.2,0,30.1-9.9,36-23.9,1.9-4.3,3-9.1,3-14.2v-76.6l16.1-16.1s5-5.3,7.2-11c1.3-3.4.7-12.5-2.9-17.7l7-7c1-1,1.6-2.4,1.6-3.9s-.4-2.3-1.1-3.3l12.3-12.3c1-1,1.6-2.4,1.6-3.9ZM1273.3,108.7l-11.5,11.8s.1,12.4.1,15.3l-10.2,10.2c-1.1,1.1-2.5,1.6-3.9,1.6s-2.8-.5-3.9-1.6c-2.1-2.1-2.1-5.6,0-7.7l18-18v-8.8l2.7-2.7,9.7-9.7c1.3,3.1,1,6.8-1,9.7ZM1282.1,69.1l-2.1-2.1,8.4-8.4,2.1,2.1-8.4,8.4Z"/>
  </g>
</svg>