<?xml version="1.0" encoding="UTF-8"?>
<svg id="Layer_1" xmlns="http://www.w3.org/2000/svg" version="1.1" viewBox="0 0 595.3 841.9">
  <!-- Generator: Adobe Illustrator 29.7.1, SVG Export Plug-In . SVG Version: 2.1.1 Build 8)  -->
  <defs>
    <style>
      .st0 {
        fill: #010101;
      }

      .st1 {
        fill: #1d1d1b;
      }

      .st2 {
        fill: #fff;
      }
    </style>
  </defs>
  <path class="st0" d="M364.2,452.5c-2.1-.4-4.1,1-6.1.6-6.3-1.2,3.5-19.5-8.1-21.8-10.2-2-30,14.7-34,13.9-.5-.1-.9-.5-.7-1.2.4-2.1,4-6.3,4.9-11.1,1.1-5.9-3-10.6-10.6-12-4.2-.8-11-1.2-12.4-1.2-10.1,0-30.2,5.5-41.1,13-9.9,6.8-15,12-19.7,18.7,0,0-2.6,3.7-4,6.7-1.4,3-2.3,5.6-2.8,8.2-1.8,9.4,2.1,17.2,13.2,19.4,13.5,2.6,27-4.9,36.2-18.5,4.4-6.6,4.3-6.6,4.3-6.6,5.2-9,9.4-19.8,12.1-31.9,3.9,0,7.8.2,11.8,1,2.1.4,3,1.5,2.8,3-1,5.1-4.5,8.5-5.5,13.6-.9,4.5,1.9,7.8,6.2,8.6,11.9,2.3,30.2-15.2,35-14.3,4.3.8-4.6,18.1,10.1,21,2.4.5,5.6.4,8.3-.6,1.6-.7,2.9-1.9,3.2-3.7.4-2.2-.6-4.3-3-4.8ZM273.6,458.7c-2.7,4.6-4.7,6.6-4.7,6.6-7.2,8.7-15.4,13.3-23.5,11.7-5.6-1.1-7.5-5.3-6.4-10.6.4-2.1.5-3,2.4-6.5,1.9-3.6,4.4-6.6,4.4-6.6,3.7-4.5,8.5-9,14.3-12.9,1.5-1.4,13.7-8.9,25.7-10.7-2.9,11.2-9.5,24.5-12.1,29.1Z"/>
  <path class="st0" d="M515.2,197.9c-.7,0-1.2.6-1.9.6-2.1,0-.1-6.4-4-6.4-3.3,0-8.5,6.6-9.9,6.6-.2,0-.3,0-.3-.3,0-.7.9-2.3.8-3.8,0-1.9-1.6-3.1-4.1-3.1-1.4,0-3.6.3-4,.4-3.2.6-9.2,3.7-12.1,6.7s-4,4.8-5,7.2c0,0-.6,1.3-.9,2.4-.3,1-.4,1.9-.4,2.8,0,3.1,1.8,5.3,5.4,5.3,4.4,0,8.2-3.3,10.3-8.1,1-2.4.9-2.4.9-2.4,1.1-3.2,1.7-6.9,1.8-10.9,1.2-.3,2.5-.4,3.8-.4.7,0,1.1.3,1.1.8,0,1.7-.9,3-.9,4.7,0,1.5,1.1,2.3,2.5,2.3,3.9,0,8.6-6.7,10.1-6.7,1.4,0-.3,6,4.5,6,.8,0,1.8-.2,2.6-.7.5-.3.8-.8.8-1.4,0-.7-.5-1.3-1.2-1.3ZM487,205.7c-.6,1.6-1.1,2.4-1.1,2.4-1.7,3.2-4,5.2-6.7,5.2-1.8,0-2.7-1.2-2.7-2.9,0-.7,0-1,.4-2.2.4-1.2,1-2.4,1-2.4.9-1.7,2.1-3.4,3.7-5,.4-.5,3.8-3.7,7.5-5-.2,3.7-1.4,8.3-2,10Z"/>
  <path class="st0" d="M364.2,315.3c-2.1-.4-4.1,1-6.1.6-6.3-1.2,3.5-19.5-8.1-21.8-10.2-2-30,14.7-34,13.9-.5-.1-.9-.5-.7-1.2.4-2.1,4-6.3,4.9-11.1,1.1-5.9-3-10.6-10.6-12-4.2-.8-11-1.2-12.4-1.2-8,0-22.2,3.4-33.1,8.6.4.9.9,1.8,1.3,2.7.7,1.7,1.1,3.5,1.8,5.1,5-2.6,7.8-4,18.7-6.5,7.2-1.6,13.7-2.5,21.3,0,2,.7,3,1.5,2.8,3-1,5.1-4.5,8.5-5.5,13.6-.9,4.5,1.9,7.8,6.2,8.6,11.9,2.3,30.2-15.2,35-14.3,4.3.8-4.6,18.1,10.1,21,2.4.5,5.6.4,8.3-.6,1.6-.7,2.9-1.9,3.2-3.7.4-2.2-.6-4.3-3-4.8Z"/>
  <path class="st0" d="M546,301c-.6.1-1,.8-1.6.9-1.9.4-1.7-6.4-5.2-5.7-3.1.6-6.4,8.2-7.6,8.4-.2,0-.3,0-.4-.3-.2-.7.3-2.4-.1-4-.5-1.9-2.3-2.9-4.6-2.4-1.3.3-3.2,1-3.6,1.2-2.2,1-5.7,3.8-8.1,6.7.2.2.5.4.7.7.4.4.8.9,1.2,1.3,1-1.4,1.6-2.2,4.3-4.3,1.8-1.4,3.5-2.4,6-2.6s1.1,0,1.2.6c.4,1.7-.1,3.2.3,4.9.4,1.5,1.6,2.2,2.9,1.9,3.6-.8,6.4-8.4,7.8-8.7,1.3-.3,1.2,6.1,5.7,5.2.7-.2,1.6-.6,2.2-1.2.3-.4.5-.9.4-1.5-.2-.7-.8-1.2-1.5-1.1Z"/>
  <path class="st0" d="M311.7,98.8c-.6-.3-1.3,0-1.9-.4-1.8-.9,2.7-5.6-.6-7.3-2.9-1.5-10.3,1.8-11.5,1.3-.2,0-.2-.2-.1-.4.3-.6,1.7-1.6,2.4-2.9.9-1.7,0-3.4-2.2-4.5-1.2-.6-3.2-1.3-3.6-1.4-2.4-.7-3.3-1.3-7-.6,0,.3.3,1.3.3,1.6,0,.6-.3,1.2-.2,1.8,1.7-.3-.8-1,2.7-.7,2.3.1,4.4.4,6.4,1.9s.8.7.6,1.2c-.7,1.5-2.1,2.2-2.8,3.6-.6,1.3-.1,2.5,1.1,3.1,3.4,1.7,10.4-2,11.8-1.3,1.2.6-3,5.1,1.2,7.2.7.3,1.7.6,2.6.5.5,0,1-.3,1.3-.9.3-.6.2-1.4-.5-1.7Z"/>
  <path class="st0" d="M220.6,226c-2.1-.4-6.5,0-8.5-.3-5.5-1.2.2-16-7.5-17.8s-14.1,2.6-21.6,7c-6.4,4.3-9.7,7-14.2,9.9,0,0,1.4,1.2,2,1.6,3.5,2.6,25.8-13.9,30.6-13,4.3.8-2.9,17.1,12.1,18.3s8.5.5,9.3-.8c1.1-2,.2-4.4-2.1-4.9Z"/>
  <path class="st0" d="M309.2,156.9c-10.8,8.5-13.9,9-15.9,8.6-5.5-1.2,10-19.1,2.3-20.5-12.3-2.2-26.4,5.7-33.9,10.1-7,4.2-12.1,5.7-9.2,9s22-15.7,40-15-14.7,21,2.7,21,16.9-8.9,17.6-10.1c1.1-2-1.7-4.5-3.5-3.1Z"/>
  <path class="st0" d="M203.1,333.1c-11.2,14.8-16.3,12-16.3,11.2-.9-13.1,20.2-21,8.6-29.1-12.5-8.6-22.7,2-23.5,1.9-1.4.8-12.4,7.6-10,10.7,4.7,6,20.5-18.1,29.9-7.8s-28.1,30.1-1.5,30.1c10.1,0,16.3-11.9,17.5-13.9,1.8-3-2.4-6-4.6-3.1Z"/>
  <path class="st0" d="M80.5,208.8s5.1,1.5,3.9,3.9c-4.1,7.9-10.9,1.6-6.6,11.6s12.4-2,13.7-11.3-8-9.1-15.7-10.6c-4.2-.8-14-.6-15.4-.6-8,0-19.1,2.3-30.1,7.5.4.9,2.1,4.5,2.8,6.2,5.2-2.3,8.2-3.4,19.1-5.9,7.2-1.6,20.6-3.2,28.2-.7Z"/>
  <path class="st0" d="M339.6,232.5c1.6-2.1,3.9-4.8,4.4-7.5.1-.6,0-1.2,0-1.9-10.6,2.8-24.7,14.1-28.1,13.5-.5-.1-.9-.5-.7-1.2.4-2.1,4-6.3,4.9-11.1,1.1-5.9-3-10.6-10.6-12-4.2-.8-11-1.2-12.4-1.2-8,0-22.2,3.4-33.1,8.6.4.9.9,1.8,1.3,2.7.7,1.7,1.1,3.5,1.8,5.1,5-2.6,7.8-4,18.7-6.5,7.2-1.6,13.7-2.5,21.3,0,2,.7,3,1.5,2.8,3-1,5.1-4.5,8.5-5.5,13.6-.9,4.5,1.9,7.8,6.2,8.6,7.9,1.5,18.6-5.6,26.3-10.4,1-1.1,1.9-2.3,2.9-3.5Z"/>
  <path class="st1" d="M381,294.8l13.1-37.5h4.6l-12.6,37.5h-5.1ZM407.1,294.8l-12.7-37.5h4.3l13.1,37.5h-4.7Z"/>
  <path class="st1" d="M30.3,242.4l25.4-72.5h8.9l-24.4,72.5h-9.9ZM80.7,242.4l-24.5-72.5h8.3l25.3,72.5h-9.1Z"/>
  <circle class="st0" cx="32" cy="212.1" r="3.4"/>
  <path class="st0" d="M173.8,208.8s5.1,1.5,3.9,3.9c-4.1,7.9-10.9,1.6-6.6,11.6s12.4-2,13.7-11.3-8-9.1-15.7-10.6c-4.2-.8-14-.6-15.4-.6-8,0-19.1,2.3-30.1,7.5.4.9,2.1,4.5,2.8,6.2,5.2-2.3,8.2-3.4,19.1-5.9,7.2-1.6,20.6-3.2,28.2-.7Z"/>
  <path class="st0" d="M173.8,308.9s5.1,1.5,3.9,3.9c-4.1,7.9-10.9,1.6-6.6,11.6s12.4-2,13.7-11.3-8-9.1-15.7-10.6c-4.2-.8-14-.6-15.4-.6-8,0-19.1,2.3-30.1,7.5.4.9,2.1,4.5,2.8,6.2,5.2-2.3,8.2-3.4,19.1-5.9,7.2-1.6,20.6-3.2,28.2-.7Z"/>
  <path class="st1" d="M123.5,242.4l25.4-72.5h8.9l-24.4,72.5h-9.9ZM174,242.4l-24.5-72.5h8.3l25.3,72.5h-9.1Z"/>
  <path class="st1" d="M123.5,339.8l25.4-72.5h8.9l-24.4,72.5h-9.9ZM174,339.8l-24.5-72.5h8.3l25.3,72.5h-9.1Z"/>
  <path class="st0" d="M220.6,119.8c-2.1-.4-6.5,0-8.5-.3-5.5-1.2.2-16-7.5-17.8s-14.1,2.6-21.6,7c-6.4,4.3-9.7,7-14.2,9.9,0,0,1.4,1.2,2,1.6,3.5,2.6,25.8-13.9,30.6-13,4.3.8-2.9,17.1,12.1,18.3s8.5.5,9.3-.8c1.1-2,.2-4.4-2.1-4.9Z"/>
  <path class="st0" d="M173.8,102.6s5.1,1.5,3.9,3.9c-4.1,7.9-10.9,1.6-6.6,11.6s12.4-2,13.7-11.3-8-9.1-15.7-10.6c-4.2-.8-14-.6-15.4-.6-8,0-19.1,2.3-30.1,7.5.4.9,2.1,4.5,2.8,6.2,5.2-2.3,8.2-3.4,19.1-5.9,7.2-1.6,20.6-3.2,28.2-.7Z"/>
  <path class="st1" d="M123.5,136.3l25.4-72.5h8.9l-24.4,72.5h-9.9ZM174,136.3l-24.5-72.5h8.3l25.3,72.5h-9.1Z"/>
  <circle class="st0" cx="125.2" cy="212.1" r="3.4"/>
  <path class="st1" d="M365.9,195.8l22-62.9h7.7l-21.1,62.9h-8.6ZM377.2,178.3v-7.2h28.8v7.2h-28.8ZM409.6,195.8l-21.2-62.9h7.2l21.9,62.9h-7.9Z"/>
  <path class="st1" d="M463.5,195.8l22-62.9h7.7l-21.1,62.9h-8.6ZM474.8,178.3v-7.2h28.8v7.2h-28.8Z"/>
  <path class="st0" d="M426.7,135.9c-.1-.4-.4-.8-.8-1l-3.7-2.1c-.4-.2-.8-.3-1.3-.1s-.8.4-1,.8l-2.6,4.6c-.8-.3-1.6,0-2,.7l-10.2,18.4-2.3,4.1-13.9,24.9c-1.1,2-.7,4.3.8,5.9l-.9,1.6s-1.2,1.8.4,2.6,2,0,2.2-.5l1.2-2.2c.8.2,1.6.2,2.4,0,1.3-.4,2.3-1.2,3-2.3l19-34,2.3-4.1,2-3.6c.6.8.8,1.9.5,2.9l-2.2,4.1-3.9,7c-.4.8-.2,1.8.6,2.3.4.2.9.3,1.3.1s.8-.4,1-.8l5.5-9.9s1-2,1.2-3.8c.1-1.1-.8-3.7-2.3-4.9l1.5-2.6c.2-.4.3-.8.1-1.3s-.3-.6-.6-.9l2.6-4.6c.2-.4.3-.8.1-1.3ZM395.2,189.7c-.2.4-.6.7-1,.8s-.9,0-1.2-.1l-.5-.3c-.8-.4-1.1-1.4-.6-2.2l4.4-7.9,3.3,1.8-4.4,7.9ZM401.2,178.9l-3.3-1.8,19.6-35.1,3.3,1.8-19.6,35.1ZM421.1,140.2l-.8-.4,1.7-3.1.8.4-1.7,3.1Z"/>
  <rect class="st2" x="389.2" y="158.5" width="40.2" height="3.8" transform="translate(69.9 439.8) rotate(-60.9)"/>
  <path class="st0" d="M494.8,131.4c-.4-.2-.9-.2-1.3,0l-4,1.5c-.4.2-.7.5-.9.9s-.2.9,0,1.3l1.9,4.9c-.7.4-1.1,1.3-.8,2l7.4,19.7,1.7,4.4,10,26.7c.8,2.1,2.9,3.3,5,3.2l.7,1.8s.6,2.1,2.3,1.4,1.2-1.6,1-2l-.9-2.3c.7-.5,1.2-1.1,1.5-1.9.5-1.2.6-2.5.1-3.8l-13.7-36.5-1.7-4.4-1.5-3.9c1,0,2,.6,2.5,1.5l1.7,4.3,2.8,7.5c.3.9,1.3,1.3,2.1,1,.4-.2.8-.5.9-.9s.2-.8,0-1.3l-4-10.6s-.8-2.1-2.1-3.4c-.8-.8-3.4-1.8-5.3-1.4l-1.1-2.8c-.2-.4-.5-.7-.9-.9s-.7-.2-1-.1l-1.9-4.9c-.2-.4-.5-.7-.9-.9ZM515.4,190.3c.2.4.1.8,0,1.2s-.5.7-.9.8l-.5.2c-.8.3-1.8-.1-2.1-.9l-3.2-8.5,3.5-1.3,3.2,8.5ZM511,178.7l-3.5,1.3-14.1-37.6,3.5-1.3,14.1,37.6ZM494.4,138.5l-.9.3-1.3-3.4.9-.3,1.3,3.4Z"/>
  <path class="st1" d="M463.5,304.5l22-62.9h7.7l-21.1,62.9h-8.6ZM474.8,287v-7.2h28.8v7.2h-28.8Z"/>
  <path class="st0" d="M494.8,240.2c-.4-.2-.9-.2-1.3,0l-4,1.5c-.4.2-.7.5-.9.9s-.2.9,0,1.3l1.9,4.9c-.7.4-1.1,1.3-.8,2l7.4,19.7,1.7,4.4,10,26.7c.8,2.1,2.9,3.3,5,3.2l.7,1.8s.6,2.1,2.3,1.4,1.2-1.6,1-2l-.9-2.3c.7-.5,1.2-1.1,1.5-1.9.5-1.2.6-2.5.1-3.8l-13.7-36.5-1.7-4.4-1.5-3.9c1,0,2,.6,2.5,1.5l1.7,4.3,2.8,7.5c.3.9,1.3,1.3,2.1,1,.4-.2.8-.5.9-.9s.2-.8,0-1.3l-4-10.6s-.8-2.1-2.1-3.4c-.8-.8-3.4-1.8-5.3-1.4l-1.1-2.8c-.2-.4-.5-.7-.9-.9s-.7-.2-1-.1l-1.9-4.9c-.2-.4-.5-.7-.9-.9ZM515.4,299c.2.4.1.8,0,1.2s-.5.7-.9.8l-.5.2c-.8.3-1.8-.1-2.1-.9l-3.2-8.5,3.5-1.3,3.2,8.5ZM511,287.4l-3.5,1.3-14.1-37.6,3.5-1.3,14.1,37.6ZM494.4,247.2l-.9.3-1.3-3.4.9-.3,1.3,3.4Z"/>
  <path class="st1" d="M280.1,101l22-62.9h7.7l-21.1,62.9h-8.6ZM291.4,83.5v-7.2h28.8v7.2h-28.8ZM323.8,101l-21.2-62.9h7.2l21.9,62.9h-7.9Z"/>
  <g>
    <path class="st0" d="M350,64.9c0-.3-.1-.6-.4-.9l-2.2-2.3c-.2-.2-.6-.4-.9-.4s-.6.1-.9.4l-2.8,2.8c-.5-.4-1.2-.3-1.6.1l-11.2,11.1-2.5,2.5-15.2,15.1c-1.2,1.2-1.4,3-.6,4.4l-1,1s-1.2,1.1-.2,2,1.5.3,1.7,0l1.3-1.3c.5.3,1.1.5,1.8.5,1,0,1.9-.4,2.6-1.1l20.7-20.7,2.5-2.5,2.2-2.2c.3.7.2,1.6-.2,2.2l-2.4,2.5-4.3,4.3c-.5.5-.5,1.3,0,1.8.2.2.6.4.9.4s.6-.1.9-.4l6-6s1.2-1.2,1.6-2.5c.3-.8.2-2.8-.7-4l1.6-1.6c.2-.2.4-.6.4-.9s0-.5-.2-.7l2.8-2.8c.2-.2.4-.6.4-.9ZM316,97.2c-.2.2-.5.4-.9.4s-.6-.1-.9-.4l-.3-.3c-.5-.5-.5-1.2,0-1.7l4.8-4.8,2,2-4.8,4.8ZM322.6,90.7l-2-2,21.4-21.3,2,2-21.4,21.3ZM345,66.8l-.5-.5,1.9-1.9.5.5-1.9,1.9Z"/>
    <rect class="st2" x="317.2" y="77.6" width="30.2" height="2.8" transform="translate(41.1 257.6) rotate(-44.9)"/>
  </g>
</svg>