<?xml version="1.0" encoding="utf-8"?><!-- Uploaded to: SVG Repo, www.svgrepo.com, Generator: SVG Repo Mixer Tools -->
<svg width="800px" height="800px" viewBox="0 0 24 24" fill="none" xmlns="http://www.w3.org/2000/svg">
<path fill-rule="evenodd" clip-rule="evenodd" d="M4.5 5.25C4.5 4.00736 5.50736 3 6.75 3H17.25C18.4926 3 19.5 4.00736 19.5 5.25V20.25C19.5 20.5266 19.3478 20.7807 19.1039 20.9113C18.86 21.0418 18.5641 21.0275 18.334 20.874L16.5 19.6514L14.666 20.874C14.4141 21.042 14.0859 21.042 13.834 20.874L12 19.6514L10.166 20.874C9.9141 21.042 9.5859 21.042 9.33397 20.874L7.5 19.6514L5.66602 20.874C5.43588 21.0275 5.13997 21.0418 4.89611 20.9113C4.65224 20.7807 4.5 20.5266 4.5 20.25V5.25ZM8.25 10.5C7.83579 10.5 7.5 10.8358 7.5 11.25C7.5 11.6642 7.83579 12 8.25 12L15.75 12C16.1642 12 16.5 11.6642 16.5 11.25C16.5 10.8358 16.1642 10.5 15.75 10.5L8.25 10.5ZM9.75 8.25C9.75 7.83579 10.0858 7.5 10.5 7.5H13.5C13.9142 7.5 14.25 7.83579 14.25 8.25C14.25 8.66421 13.9142 9 13.5 9H10.5C10.0858 9 9.75 8.66421 9.75 8.25ZM9.75 13.5C9.33579 13.5 9 13.8358 9 14.25C9 14.6642 9.33579 15 9.75 15H14.25C14.6642 15 15 14.6642 15 14.25C15 13.8358 14.6642 13.5 14.25 13.5H9.75Z" fill="#3A52EE"/>
</svg>